<svg version="1.1" xmlns="http://www.w3.org/2000/svg" style="display: block;" viewBox="0 0 2048 1024" width="1774" height="887" preserveAspectRatio="none">
<path transform="translate(0,0)" fill="rgb(252,252,253)" d="M 0 0 L 2048 0 L 2048 1024 L 0 1024 L 0 0 z"/>
<path transform="translate(0,0)" fill="rgb(193,204,216)" d="M 1982.32 549.393 L 1985.44 551.013 C 1985.95 558.315 1985.17 578.081 1985.16 586.771 C 1985.25 613.503 1985.18 640.236 1984.98 666.968 C 1953.83 666.441 1933.09 679.023 1919.51 707.01 C 1922.72 706.888 1929.41 706.135 1931.74 707.881 C 1928.16 709.442 1923.12 708.681 1919.08 708.425 C 1916.56 716.96 1916.03 721.176 1914.94 730.087 L 1250.59 730.13 L 1090.04 729.937 C 1085.37 729.894 1065.49 730.671 1063.06 729.255 C 1065.58 727.097 1070.38 727.487 1073.66 727.595 C 1098.37 728.412 1123.12 727.948 1147.85 727.951 L 1342.39 728 L 1911.25 727.951 C 1911.5 727.924 1911.77 727.957 1912.01 727.87 C 1913.78 727.229 1916.67 711.732 1917.74 708.51 L 1286.97 708.594 L 1096.07 708.563 C 1082.97 708.499 1070.11 707.52 1057.23 710.357 C 1056.14 710.595 1055 708.967 1054.33 708.129 L 1055.04 706.483 C 1056.44 705.722 1076.84 707.205 1080.99 707.182 L 1247.77 706.981 L 1918.25 706.976 C 1927.27 679.71 1954.86 663.764 1982.97 665.813 C 1982.82 631.25 1984.47 582.561 1982.32 549.393 z"/>
<path transform="translate(0,0)" fill="rgb(193,204,216)" d="M 1104.08 283.761 C 1118.41 282.809 1145.92 283.734 1161.32 283.759 L 1276.9 283.833 L 1644.21 283.806 L 1837.37 283.788 L 1887.74 283.726 C 1915.99 283.703 1933.85 280.593 1951.34 307.806 C 1990.52 323.016 1984.24 349.975 1984.87 386.025 C 1985 392.996 1985.68 444.715 1984.49 446.734 L 1983.19 446.724 C 1979.42 441.409 1983.66 435.99 1982.87 429.986 C 1977.35 388.209 2000.54 331.024 1952.18 309.517 C 1969.53 347.147 1956.34 390.38 1962.43 429.775 C 1962.73 431.74 1962.69 430.902 1962.2 432.883 L 1960.25 433.199 C 1957.08 429.846 1959.27 419.76 1958.97 414.338 C 1957.09 380.645 1964.97 340.017 1949.82 308.887 C 1933.76 305.631 1902.58 306.554 1885.01 306.563 L 1787.02 306.682 L 1411.73 306.51 C 1346.42 307.255 1279.3 306.764 1213.91 306.626 L 1149.85 306.644 C 1137.1 306.568 1124.25 306.122 1111.51 306.43 C 1108.06 306.513 1106.01 307.547 1102.93 307.775 L 1101.7 306.075 L 1102.24 304.47 C 1129.22 305.434 1157.82 304.895 1184.98 304.89 L 1324.74 304.87 L 1746.78 304.938 L 1875.03 304.834 C 1892.7 304.833 1934.34 303.384 1949.8 307.459 C 1939.37 294.485 1931.56 286.543 1913.71 285.844 C 1896.81 285.183 1879.97 285.45 1863.06 285.456 L 1771.92 285.511 L 1491.88 285.518 L 1232.24 285.551 L 1153.17 285.442 C 1138.12 285.4 1118.91 284.843 1104.21 286.009 L 1104.08 283.761 z"/>
<path transform="translate(0,0)" fill="rgb(193,204,216)" d="M 76.8785 575.656 L 78.243 575.249 L 79.2381 575.949 C 78.4518 582.421 78.5589 606.95 78.853 614.979 C 79.8074 641.044 76.1386 681.477 81.6922 705.494 C 95.3457 707.948 127.698 707.023 143.376 707.019 L 256.921 706.944 L 672.993 707.005 L 841.009 707.005 C 848.631 707.003 895.701 707.796 899.674 706.261 L 901.602 707.581 L 901.065 708.372 C 893.55 709.514 875.566 708.545 866.939 708.527 L 795.516 708.585 L 551.061 708.511 L 235.431 708.574 L 146.979 708.561 C 128.471 708.671 98.9692 709.752 81.5082 707.141 C 84.6042 713.922 86.9968 716.6 91.8028 721.984 C 95.2093 724.449 99.6979 727.781 103.975 727.861 C 126.451 728.282 149.763 728.051 172.175 728.024 L 312.23 727.999 L 791 727.939 C 800.774 727.939 901.405 727.39 902.605 728.004 L 902.737 729.698 C 900.37 730.969 892.18 730.063 888.874 730.071 L 847.332 730.126 L 710.864 730.131 L 257.016 730.118 L 156.758 730.166 C 137.905 730.169 118.5 730.755 99.7629 728.871 C 94.2029 728.312 76.7497 707.24 76.2098 702.812 C 78.0004 703.019 77.2097 703.213 78.6803 702.321 C 73.8559 664.366 78.7922 621.535 76.6815 583.075 C 76.5628 580.912 76.3882 577.708 76.8785 575.656 z"/>
<path transform="translate(0,0)" fill="rgb(193,204,216)" d="M 920.046 282.704 C 921.845 282.572 921.48 282.753 923.37 283.779 L 923.033 285.34 C 919.573 287.73 906.734 285.463 901.767 285.495 C 885.353 285.6 868.91 285.526 852.494 285.525 L 674.751 285.521 L 124.277 285.51 C 124.238 293.675 124.008 296.865 122.598 304.898 L 708.431 304.881 L 882.416 304.887 C 895.135 304.893 907.939 305.016 920.664 305.144 C 925.227 305.19 931.877 302.795 936.472 303.336 L 937.76 305.13 L 937.227 307.504 C 933.066 309.519 927.151 306.841 922.197 306.681 C 914.41 306.43 906.678 306.49 898.889 306.513 L 709.965 306.566 C 687.366 307.432 659.142 306.635 636.077 306.639 L 487.099 306.544 L 122.883 306.526 C 111.827 340.117 94.7612 357.749 57.0101 357.149 C 57.0523 373.483 59.2608 455.267 56.3831 464.83 L 55.4831 464.176 C 54.1973 457.014 54.7808 435.512 54.7902 426.78 L 54.7741 354.785 C 74.0595 355.532 85.6215 354.132 101.284 340.689 C 108.463 334.527 119.307 318.117 119.69 308.518 C 117.227 306.164 115.613 308.214 110.559 307.337 L 110.377 305.682 L 111.751 304.266 C 114.439 304.694 116.002 305.211 118.489 304.007 C 123.398 299.205 122.764 290.736 123.181 283.732 L 734.28 283.733 L 862.024 283.88 C 870.971 283.884 914.21 284.627 920.046 282.704 z"/>
<path transform="translate(0,0)" fill="rgb(193,204,216)" d="M 74.8578 300.171 C 77.0822 313.328 79.2459 317.339 92.6657 322.08 C 90.6403 323.503 88.2451 323.72 85.7573 324.218 C 76.5675 329.083 76.5423 334.967 74.9278 344.443 C 70.2571 327.951 69.9671 326.471 53.4311 322.009 C 59.637 320.104 63.3605 319.188 69.0179 315.889 C 72.4082 310.402 73.188 306.347 74.8578 300.171 z"/>
<path transform="translate(0,0)" fill="rgb(193,204,216)" d="M 1957.1 702.273 C 1966.61 697.561 1967.08 692.723 1968.92 682.975 C 1970.41 688.725 1971.25 691.495 1973.5 697.075 C 1977.75 701.648 1983.91 702.315 1985.6 704.601 C 1982.39 706.452 1980.85 706.325 1978.35 707.596 C 1972.39 710.626 1970.74 719.534 1969.04 725.546 C 1965.92 712.418 1963.8 709.116 1950.41 703.905 C 1952.37 702.599 1954.68 702.579 1957.1 702.273 z"/>
<path transform="translate(0,0)" fill="rgb(193,204,216)" d="M 988.565 701.8 C 989.059 702.358 989.041 702.238 989.273 702.857 C 994.452 716.662 996.232 716.918 1009.88 719.719 C 994.642 722.839 993.436 723.589 988.919 738.37 C 984.174 724.041 983.386 724.025 969.302 719.781 C 983.459 714.954 983.891 716.8 988.565 701.8 z"/>
<path transform="translate(0,0)" fill="rgb(193,204,216)" d="M 1983.54 463.759 C 1984 464.505 1988.25 474.168 1989.16 476.005 C 1993.15 477.753 1997.64 478.917 2001.85 480.134 C 1990.05 483.891 1987.64 483.145 1984.2 496.063 L 1983.28 496.115 C 1979.68 483.819 1978.7 483.979 1967.23 480.004 C 1971.27 478.642 1974.89 477.043 1978.79 475.362 C 1980.9 471.755 1982.15 467.706 1983.54 463.759 z"/>
<path transform="translate(0,0)" fill="rgb(193,204,216)" d="M 55.0583 564.605 L 56.2164 564.272 C 58.3771 567.125 55.1306 664.978 57.6228 676.528 C 61.3418 693.762 65.4837 690.2 72.3127 701.823 C 66.4021 697.666 63.3382 694.542 59.8051 688.171 C 58.172 685.226 55.5384 679.321 55.409 676.164 C 54.9737 665.544 53.992 568.068 55.0583 564.605 z"/>
<path transform="translate(0,0)" fill="rgb(193,204,216)" d="M 1011.18 260.444 C 1014.16 262.409 1015.79 272.187 1017.71 275.493 C 1021.02 281.177 1033.05 283.152 1039.16 284.581 C 1018.13 288.895 1016.6 290.889 1010.92 311.272 C 1008.17 300.432 1008.33 294.948 999.8 288.48 L 1001.03 287.908 C 1005.06 289.866 1005.39 290.412 1007.85 294.197 L 1010.94 303.905 C 1015.55 290.096 1017.02 288.715 1030.42 284.47 C 1026.03 283.27 1022.96 281.838 1018.84 280.02 C 1015.58 275.585 1014.01 271.497 1011.82 266.504 C 1008.99 272.741 1007.24 278.006 1000.89 280.423 C 1007.84 271.004 1008.13 271.72 1011.18 260.444 z"/>
<path transform="translate(0,0)" fill="rgb(219,176,129)" d="M 57.2404 483.653 C 62.0883 491.861 59.6485 489.851 67.4884 496.426 L 66.9206 497.335 C 59.9288 500.71 59.7705 502.442 57.1189 509.564 L 53.6839 499.733 C 51.3768 498.79 48.9335 497.956 46.5823 497.11 C 46.1798 494.887 51.0718 493.513 52.9857 491.75 C 55.307 489.612 56.2043 486.43 57.2404 483.653 z"/>
<path transform="translate(0,0)" fill="rgb(219,176,129)" d="M 935.172 707.64 L 938.889 716.355 C 941.395 717.311 943.06 717.751 945.155 719.458 C 938.103 724.403 937.876 723.609 935.283 731.644 C 935.123 731.267 934.961 730.889 934.796 730.513 C 931.452 723.027 926.405 721.53 925.479 718.703 C 925.947 718.506 926.413 718.305 926.877 718.098 C 932.907 715.403 932.667 714.193 935.172 707.64 z"/>
<path transform="translate(0,0)" fill="rgb(219,176,129)" d="M 1069.76 275.069 C 1071.44 279.196 1074.2 283.321 1078.24 285.431 C 1073.87 286.465 1070.89 292.709 1069.52 296.564 C 1069.03 295.327 1068.52 294.099 1067.98 292.881 C 1066.14 288.73 1065.6 288.41 1061.31 286.771 L 1060.47 286.453 L 1060.5 285.296 C 1065.83 280.855 1066.68 281.781 1069.76 275.069 z"/>
<path transform="translate(0,0)" fill="rgb(219,176,129)" d="M 1981.52 521.477 C 1983.77 520.418 1986.45 521.239 1987.72 523.373 C 1988.99 525.508 1988.44 528.259 1986.43 529.73 C 1984.96 530.818 1982.99 530.971 1981.36 530.127 C 1979.73 529.283 1978.72 527.587 1978.75 525.752 C 1978.79 523.916 1979.86 522.26 1981.52 521.477 z"/>
<path transform="translate(0,0)" fill="rgb(193,204,216)" d="M 53.8717 537.47 C 55.3049 536.462 57.1821 536.343 58.7313 537.161 C 60.2806 537.979 61.2406 539.597 61.2165 541.349 C 61.1924 543.1 60.1883 544.691 58.6171 545.466 C 56.4327 546.544 53.7869 545.759 52.5438 543.664 C 51.3007 541.57 51.8792 538.871 53.8717 537.47 z"/>
<path transform="translate(0,0)" fill="rgb(193,204,216)" d="M 1036.55 725.375 C 1037.82 724.458 1039.48 724.297 1040.89 724.954 C 1042.31 725.61 1043.26 726.982 1043.38 728.539 C 1043.5 730.097 1042.77 731.597 1041.47 732.461 C 1039.51 733.759 1036.88 733.254 1035.54 731.326 C 1034.2 729.397 1034.65 726.752 1036.55 725.375 z"/>
</svg>