<?xml version="1.0" encoding="UTF-8" standalone="no"?>
<svg
   version="1.1"
   style="display:block"
   viewBox="0 0 1892.7638 1046.958"
   width="1419.5729"
   height="785.41028"
   preserveAspectRatio="none"
   id="svg90"
   sodipodi:docname="trip_border.svg"
   inkscape:version="1.4.2 (f4327f4, 2025-05-13)"
   xmlns:inkscape="http://www.inkscape.org/namespaces/inkscape"
   xmlns:sodipodi="http://sodipodi.sourceforge.net/DTD/sodipodi-0.dtd"
   xmlns="http://www.w3.org/2000/svg"
   xmlns:svg="http://www.w3.org/2000/svg">
  <sodipodi:namedview
     id="namedview90"
     pagecolor="#ffffff"
     bordercolor="#000000"
     borderopacity="0.25"
     inkscape:showpageshadow="2"
     inkscape:pageopacity="0.0"
     inkscape:pagecheckerboard="0"
     inkscape:deskcolor="#d1d1d1"
     inkscape:zoom="1.1845703"
     inkscape:cx="708.2737"
     inkscape:cy="394.65787"
     inkscape:window-width="2560"
     inkscape:window-height="1494"
     inkscape:window-x="-11"
     inkscape:window-y="-11"
     inkscape:window-maximized="1"
     inkscape:current-layer="svg90" />
  <defs
     id="defs4">
    <linearGradient
       id="Gradient1"
       gradientUnits="userSpaceOnUse"
       x1="1801.0699"
       y1="1213.2"
       x2="1747.91"
       y2="1167.99"
       gradientTransform="translate(-80.0461,-156.528)">
      <stop
         class="stop0"
         offset="0"
         stop-opacity="0"
         stop-color="rgb(158,197,198)"
         id="stop1" />
      <stop
         class="stop1"
         offset="1"
         stop-opacity="0.0705882"
         stop-color="rgb(199,239,236)"
         id="stop2" />
    </linearGradient>
    <linearGradient
       id="Gradient2"
       gradientUnits="userSpaceOnUse"
       x1="1539.67"
       y1="1150.99"
       x2="1541.73"
       y2="1186.64"
       gradientTransform="translate(-80.0461,-156.528)">
      <stop
         class="stop0"
         offset="0"
         stop-opacity="0"
         stop-color="rgb(194,231,231)"
         id="stop3" />
      <stop
         class="stop1"
         offset="1"
         stop-opacity="0.054902"
         stop-color="rgb(207,238,235)"
         id="stop4" />
    </linearGradient>
  </defs>
  <path
     fill="#c2e9e8"
     d="m 168.0209,985.422 c 25.606,0.94 66.609,9.75 91.505,17.58 17.716,4.98 35.519,8.92 53.956,9.76 38.319,3.93 84.542,-4.36 122.331,-10.74 38.774,-6.65 77.208,-13.98 116.61,-15.52 26.277,-1.02 50.538,3.4 76.062,9.07 5.15,1.14 10.867,2.43 16.083,2.8 11.352,3.25 33.511,5.96 42.267,9.76 4.012,1.89 8.836,4.11 12.885,1.87 l -0.611,-1.85 c -4.598,-3.84 -10.173,-3.98 -16.043,-4.57 l -6.285,-2.35 c 6.325,-2.74 8.758,1.48 13.468,-4.96 14.745,-0.45 35.343,-1.23 49.619,1.62 5.681,1.13 5.678,4.02 11.511,-0.05 l -0.555,-1.07 -5.271,-0.26 c 1.199,-2.01 1.069,-1.49 3.374,-2.86 14.183,-0.06 107.687,2.93 115.687,8.88 l -3.545,2.86 c 5.585,2.57 11.426,-3.23 17.45,-1.95 -0.022,1.91 -0.381,1.6 -2.144,3.46 15.084,1.74 25.676,4.55 39.876,6.61 l -0.407,0.98 c -1.212,2.97 -1.786,3.8 -1.309,6.97 3.386,1.57 5.399,-1.29 8.759,0.59 -1.75,0.8 -3.424,1.58 -5.208,2.32 -0.804,2.33 -1.342,2.83 -3.686,3.57 l 0.973,1.74 0.705,-0.89 0.287,1.53 c 0.865,0.59 1.69,1.1 2.387,1.89 -3.533,-0.57 -6.212,-1.11 -9.821,-1.13 l 1.983,0.83 0.143,3.36 1.711,-0.63 c -1.818,1.32 -3.853,1.27 -6.153,1.54 -18.861,1.52 -39.716,-1.35 -58.674,-1.99 -4.668,-0.16 -16.506,-1.48 -20.315,-0.91 30.427,4.53 62.525,4.32 93.528,6.26 87.6,3.08 181.91,-8.54 267.84,-24.24 37,-5.66 76.43,-15.83 113.37,-20.34 115.4,-14.08 226.79,5.18 340.72,19.32 10.82,1.35 86.97,-0.85 88.54,0.38 -5.8,2.45 -11.84,3.37 -18.02,4.57 -21.47,3.53 -36.77,3.37 -57.7,5.12 -12.11,-1.62 -28.36,0.73 -44.2,-1.4 -0.84,-0.36 -11.34,-1.33 -13.47,-1.62 -52.32,-5.9 -103.16,-19.81 -156.46,-21.46 -20.92,-0.64 -43.33,-3.57 -64.18,-1.34 -66.53,-2.69 -146.6,16.42 -212.38,27.63 -90,15.33 -178.08,23.81 -269.464,19.81 -41.124,-1.8 -94.973,-4.53 -135.446,-12.24 -28.577,-5.38 -56.999,-11.55 -85.232,-18.51 -31.67,-7.9 -67.57,-18.6 -100.046,-20.62 -28.526,-1.76 -59.048,2.31 -87.062,7.22 -16.834,2.95 -35.452,4.37 -52.034,8.91 -11.613,2.63 -27.182,5.48 -38.998,6.75 l -0.804,0.05 c -17.075,1.16 -34.675,5.37 -52.27,5.37 -11.401,0.04 -22.796,-0.54 -34.135,-1.73 -6.709,-0.76 -18.66,-2.75 -24.937,-2.87 l -12.061,-3.29 c -17.811,-4.01 -35.135,-9.76 -53.135,-12.92 -7.231,-1.26 -14.324,-3.27 -21.475,-4.94 -13.905,-2.34 -25.76,-2.96 -39.648,-4.43 -7.368,-1.85 -25.448,1.08 -29.283,-2.57 l 0.504,-1.96 c 1.597,-1.06 33.44,-2.24 38.333,-2.77 z"
     id="path4" />
  <path
     fill="#acdbdd"
     d="m 67.4279,809.822 c 8.245,24.393 9.709,33.92 24.176,55.43 l -14.339,-4.97 c 8.983,14.46 16.661,28.92 29.093,40.52 -10.1,-1.89 -15.681,-4.33 -24.883,-8.39 4.408,10.48 14.069,22.54 21.661,31.18 4.135,-3.5 15.94,-14.31 12.003,-20.35 l -3.176,1.39 -1.074,-0.72 c 1.148,-4.83 13.115,-34.88 16.289,-36.65 1.394,1.83 15.141,35.8 14.928,36.95 l -4.763,-0.78 -0.649,0.98 c 3.997,10 13.628,17.52 15.671,24 l -1.048,1.57 c -4.066,0.97 -8.579,-0.99 -12.675,-2.29 3.875,4.77 19.089,18.67 19.556,21.92 -3.337,1.48 -10.842,1.14 -14.882,1.19 l -0.216,1.32 c 6,12.49 11.371,10.19 20.772,19.31 l -0.882,0.87 -3.288,-2.56 c -0.743,0.73 -2.589,2.55 -3.119,2.34 -5.546,-2.12 -21.484,-3.44 -26.162,-3.88 -0.68,5.05 -0.978,12.13 -1.36,17.36 7.158,-1.27 32.092,-1.97 38.96,-0.14 -4.893,0.53 -36.736,1.71 -38.333,2.77 l -0.504,1.96 c 3.835,3.65 21.915,0.72 29.283,2.57 -23.524,3.06 -54.032,-0.36 -78.128,7.89 -13.001,-0.64 -60.13,16.97 -74.9933,20.97 12.7732,-12.28 42.5963,-21.37 59.6963,-26.13 -0.953,-4.96 -1.694,-17.56 -2.212,-23.34 -19.598,3.87 -27.745,5.21 -46.6929,11.74 5.9389,-7.68 26.1669,-18.41 24.0249,-31.2 -4.287,-0.55 -6.988,6.01 -13.747,5.75 l -1.088,-1.44 c 9.023,-10.25 15.923,-21.22 23.626,-32.52 -5.665,1.43 -12.274,3.82 -18.179,5.5 l -1.277,-1.09 c 1.756,-3.7 5.83,-7.73 8.417,-11.34 5.746,-8 11.322,-15.74 16.381,-24.21 -7.017,2.2 -15.502,2.98 -23.319,5.06 8.779,-9.46 19.712,-27.34 25.357,-39.04 -5.087,3.42 -10.146,6.88 -15.175,10.38 12.788,-17.49 20.387,-39.264 26.27,-59.88 z m 6.77,157.47 c -1.1,9.64 -0.479,17.92 -1.365,26.87 3.752,-2.71 32.941,-7.98 38.83,-7.79 4.182,-0.37 5.374,-0.45 9.525,-1.81 0.215,-2.98 0.812,-14.99 -0.808,-16.98 -3.935,-0.99 -5.892,-0.23 -9.766,0.69 l 0.705,5.33 c -3.66,4.31 -11.205,1.73 -16.852,1.46 -10.595,-0.75 -11.502,-1.6 -20.269,-7.77 z m 37.625,-33.65 c 1.46,-1.83 3.862,-4.26 4.074,-6.42 -4.239,2.69 -5.639,3.79 -9.368,7.16 -4.01,-6.67 -7.844,-5.75 -15.361,-9.75 -1.716,9.17 -0.49,7.13 4.839,16.41 1.285,2.24 3.222,3 5.679,3.48 3.758,-1.21 7.558,-7.36 10.137,-10.88 z"
     id="path5" />
  <path
     fill="#acdbdd"
     d="m 129.0609,985.562 c 7.158,-1.27 32.092,-1.97 38.96,-0.14 -4.893,0.53 -36.736,1.71 -38.333,2.77 l -0.504,1.96 c 3.835,3.65 21.915,0.72 29.283,2.57 -23.524,3.06 -54.032,-0.36 -78.128,7.89 -13.001,-0.64 -60.13,16.97 -74.9933,20.97 12.7732,-12.28 42.5963,-21.37 59.6963,-26.13 3.04,-0.32 4.807,-0.61 7.791,-1.29 3.752,-2.71 32.941,-7.98 38.83,-7.79 6.682,0.13 10.206,0.12 15.586,4.44 1.335,-1.94 1.359,-2.96 1.812,-5.25 z"
     id="path6" />
  <path
     fill="#96b7b8"
     d="m 94.4669,975.062 c 3.463,-1.1 7.728,-0.09 10.006,-2.91 5.637,-6.96 -5.162,-8.06 -4.753,-15.78 3.244,-2.84 1.332,1.24 10.242,-1.78 -1.336,6.16 -1.718,6.68 -0.669,12.91 l 1.321,0.77 0.705,5.33 c -3.66,4.31 -11.205,1.73 -16.852,1.46 z"
     id="path7" />
  <path
     fill="#acdbdd"
     fill-opacity="0.0509804"
     d="m 91.1679,924.632 c 7.517,4 11.351,3.08 15.361,9.75 3.729,-3.37 5.129,-4.47 9.368,-7.16 -0.212,2.16 -2.614,4.59 -4.074,6.42 -2.579,3.52 -6.379,9.67 -10.137,10.88 -2.457,-0.48 -4.394,-1.24 -5.679,-3.48 -5.329,-9.28 -6.555,-7.24 -4.839,-16.41 z"
     id="path8" />
  <path
     fill="#acdbdd"
     d="m 1342.3939,1015.102 c 5.27,-4.62 52.01,-3.87 60.83,-3.48 4.96,0.22 1.58,-3.26 7.68,-3.3 16.21,-0.11 32.4,0.56 48.53,1.61 28.26,1.84 56.44,4.71 84.49,8.6 8.32,1.13 40.39,6.55 46.79,6.39 l 10.28,1.56 0.94,3.14 c 6.06,0.78 10.11,6.51 9.54,12.55 l -3.68,1.22 -3.34,-1.9 c -7.91,2.36 -31.96,1.19 -41.51,1.16 l -98.62,-1.06 c -14.12,-0.18 -28.21,2.19 -42.41,-0.83 -2.86,-0.6 -8.44,-1.66 -11.21,-1.53 l 2.39,3.64 c -2.31,0.65 -14,-4.47 -17.48,-4.14 -6.16,0.57 -5.82,3.65 -12.96,1.58 2.83,-0.42 6.38,-0.58 8.54,-2.24 -2.32,-1.79 -4.36,-0.27 -8.68,-1.07 -6.65,-8.13 -6.48,0.99 -11.67,2.81 -2.74,-7.86 -2.71,-6.21 -10.64,-7.43 -2.4,-2.09 -2.96,-2.58 -5.79,-4.01 -5.34,0.26 -3.42,-0.48 -7.44,2.5 -4.76,-1.67 -6.93,-0.99 -11.91,-0.19 -0.3,-0.79 -0.31,-1.38 -0.31,-2.21 -2.07,-0.98 -2.21,-1.16 -3.94,-2.52 l 0.25,-2.73 c 2.27,-3.63 7.46,-4.84 11.33,-8.12 z"
     id="path9" />
  <path
     fill="#acdbdd"
     d="m 687.9119,27.419 758.762,-0.098 183.69,0.008 c 11.91,0 57.37,-1.489 65.94,0.618 0.7,2.842 0.78,1.475 -0.29,4.241 -5.49,2.859 -22.1,1.874 -29.31,1.806 -21.35,0.814 -45.26,0.117 -66.91,0.124 l -140.7,-0.19 -425.85,-0.217 -241.285,-0.046 -65.642,0.023 c -10.25,0.047 -29.505,0.717 -38.502,-0.461 -1.382,-2.594 -0.846,-1.993 0.097,-5.808 z"
     id="path10" />
  <path
     fill="#acdbdd"
     d="m 149.2189,1005.662 c 9.975,1.13 19.659,1.19 29.628,2.04 29.884,2.54 60.305,4.8 89.967,9.29 5.788,0.62 8.572,0.67 13.878,2.95 10.321,1.87 26.478,2.2 34.107,3.89 6.204,0.98 12.163,0.87 18.389,-0.05 10.008,1.65 46.33,-2.02 57.394,-3.35 l 3.868,0.52 c -2.617,0.14 -3.849,-0.29 -5.567,1 5.882,4.29 23.72,-6.06 30.845,2.24 -3.858,2.25 -12.765,1 -17.227,1.27 -2.824,0.17 -8.197,4.54 -11.149,5.25 -5.677,1.37 -9.084,-1.22 -15.038,1.45 -0.49,3.24 0.023,5.43 0.468,8.65 -6.073,1.22 -13.936,-0.68 -20.194,-0.84 -0.279,0.28 -2.491,2.7 -2.513,2.7 -6.621,-0.59 -29.894,-1.48 -35.186,-1.29 -14.536,0.53 -25.308,-2.6 -38.457,2.15 -2.237,0.81 -1.698,0.89 -4.064,0.58 -1.291,-1.57 -1.993,-2.77 -3.864,-3.5 -10.365,5.32 -71.428,0.32 -85.463,-2 l -2.637,-0.59 c -1.254,-2.73 -1.129,-2.62 -3.682,-4.19 -2.945,0.48 -2.801,0.4 -4.935,2.48 -2.813,-0.95 -8.206,-2.01 -11.228,-2.11 1.569,-0.86 2.52,-1.09 3.245,-2.66 -4.064,-3.44 -11.348,-1.35 -16.265,-4.17 -2.17,-1.24 -2.478,-1.14 -4.981,-1.27 l -1.3,-1.88 -3.388,-0.15 c -0.556,-2.07 0.032,-2.61 0.682,-5.03 l -1.127,-1.67 -2.89,2.84 c -3.3,0.7 -1.905,1.03 -4.418,-0.53 l 1.019,-0.74 c -3.263,-0.44 -2.905,0.12 -5.007,-1.68 l 1.534,-1.86 -1.195,-2.14 c 1.157,-1.38 8.485,-1.47 11.394,-1.79 3.15,-1.09 4.181,-1.32 4.776,-4.64 z"
     id="path11" />
  <path
     fill="#acdbdd"
     d="m 1808.1239,927.132 2.1,-0.45 c 1.05,-3.05 1.44,-4.18 3.09,-6.97 l 0.35,-0.6 -0.24,5.19 1.19,1.3 c 4.11,-1.08 6.88,-5.42 12.59,-8.48 -4.8,8.56 -13.08,15.39 -13.81,22.47 l 1.08,1.15 c 3.68,-0.81 5.68,-1.56 9.14,-2.85 l 1.04,0.89 c -2.12,5.95 -6.86,10.98 -10.89,15.97 -0.52,5.28 -0.96,10.56 -1.31,15.85 7.53,-4.52 19.39,-10.47 21.21,-19.41 1.14,-5.61 0.45,-6.3 3.72,-11.46 l 1.46,-0.91 c 2.33,3.2 1.18,7.85 0.55,11.89 -0.22,1.35 -0.44,2.7 -0.67,4.05 6.24,-3.55 22.99,-14.63 29.29,-12.69 l 0.67,1.41 c -3.49,6.51 -14.51,9.09 -20.89,14.08 1.86,3.89 4.22,2.45 5.41,6.88 -4.05,2.13 -10.99,-2.01 -19.4,1.77 -5.19,2.33 -13.53,6.86 -18.5,9.09 l 18.43,8.06 c 8.1,-1.86 11.79,-3.59 19.97,-3.37 l 0.63,0.41 -1.05,0.97 -0.43,-1.25 -0.47,1.79 -0.51,-1.67 -0.58,2.26 c -5.13,2.56 -7.65,3.17 -13.25,4.69 7.5,2.55 30.69,12.24 35.38,17.85 -1.76,2.02 -1.65,1.93 -4.1,3.04 -5.86,-2.06 -10.69,-3.71 -16.32,-6.41 1.19,7.46 1.99,12.38 2.25,19.98 -3.21,-7.46 -7.85,-20.98 -14.32,-25.15 l -1.22,0.55 c -0.44,4.32 -0.07,9.04 -2.55,11.93 -9.36,-5.61 8.28,-14.45 -23.36,-27.85 1.11,19.13 5.32,20.95 17.87,35.08 -6.67,-2.56 -13.33,-5.17 -19.96,-7.84 6.06,7.43 13.1,15.29 18.07,23.35 -6.34,-3.91 -9.2,-6.01 -14.93,-10.79 0.22,7.75 1.44,16.06 -2.86,22.5 l -1.7,0.2 c -4.42,-5.61 -3.8,-14.16 -3.75,-21.28 -2.9,3.39 -3.67,4.69 -8.05,6.09 l -0.85,-0.87 c 2.48,-4.86 8.24,-12.74 9.39,-17.1 -3.81,-0.52 -11.86,6.68 -15.64,9.04 6.12,-10.71 16.27,-22.7 16.05,-34.86 -3.89,-6.54 -16.7,5.19 -21.16,8.6 -1.11,4.02 -3.44,14.96 -5.56,17.81 l 0.06,-0.17 -1.32,-4.02 -0.05,0.55 c -0.45,-4.4 -0.6,-7.08 -0.57,-11.5 -6.95,3.79 -21.53,11.9 -29.16,10.48 l -0.28,-1.62 c 5.18,-7.06 21.52,-12.89 30.06,-16.23 -5.46,-1.65 -9.62,-2.4 -12.48,-7.63 3.12,-2.67 11.09,0.92 14.98,1.48 7.33,1.07 15.99,-3.61 21.9,-7.27 -7.12,-5.16 -16.63,-12.77 -25.84,-11.45 -4.25,0.61 -12.49,3.15 -16.54,0.6 1.45,-2.82 8.86,-5.94 11.9,-7.21 -6.02,-2.41 -15.77,-5.29 -18.81,-10.77 l 0.86,-1.38 c 7.77,-1.44 17.64,3.92 24.16,7.87 -0.65,-4.41 -1.72,-11.61 0.26,-15.65 l 1.77,0.07 c 6.74,23.57 5.24,17.35 25.52,32.75 -0.28,-4.76 -0.36,-8.37 -1.55,-13.03 -1.39,-5.42 -9.06,-15.39 -8.86,-19.57 6.12,0.02 8.63,3.84 13.38,6.12 -4.91,-10.61 -9.77,-14.87 -14.52,-23.98 1.34,0.77 12.34,7.56 12.53,7.63 z"
     id="path12" />
  <path
     fill="#acdbdd"
     d="m 74.0219,10.921 c 1.76,0.698 1.825,0.906 3.422,2.009 3.513,6.553 2.629,20.47 2.598,28.153 2.726,-2.187 4.423,-4.218 7.462,-4.283 0.394,3.785 -5.932,12.985 -7.145,17.196 -0.961,3.338 -1.183,8.681 -1.415,12.209 14.502,-8.936 12.952,-11.926 18.153,-27.677 0.909,5.314 1.724,10.642 2.445,15.984 2.148,-3.868 8.865,-18.691 10.502,-20.294 l 1.072,0.722 c 0.434,3.476 0.271,5.726 0.126,9.168 2.67,-0.093 11.236,-5.855 16.246,-7.219 l 1.68,1.317 -0.262,1.881 c -4.234,6.042 -19.136,13.404 -26.261,17.371 l 14.255,5.4 c -15.286,0.469 -22.346,-0.833 -34.429,8.447 5.773,3.905 9.174,4.34 15.945,5.704 4.446,-1.704 13.321,-5.278 17.69,-2.761 -2.891,3.809 -8.675,3.602 -11.171,7.243 3.397,3.212 17.286,1.938 19.164,6.258 -3.442,1.457 -5.537,1.699 -9.146,2.33 l -0.426,1.176 c 4.606,4.332 12.895,4.003 15.017,9.226 l -1.023,1.545 c -6.368,2.135 -9.512,-3.115 -16.911,-6.033 -1.405,2.838 0.602,13.202 1.11,16.642 -2.445,-4.581 -9.465,-21.724 -11.619,-23.134 -2.939,2.25 -4.535,9.714 -5.702,13.572 -1.44,-17.436 -0.955,-19.851 -17.964,-27.012 -0.436,26.967 11.399,27.114 12.402,36.838 l -1.1,0.577 1.095,-0.589 c -5.311,0.118 -7.238,-6.529 -12.305,-7.37 -0.358,4.863 4.656,8.287 4.412,13.314 -0.904,0.079 -1.808,0.151 -2.713,0.215 -1.613,2.888 -1.799,10.975 -2.734,15.744 -6.586,-7.037 -2.72,-15.441 -5.413,-18.287 l -4.851,2.968 -0.726,-0.694 c 3.485,-5.088 5.637,-7.912 7.921,-13.584 l -0.501,-1.032 c -5.044,2.791 -10.076,6.246 -14.913,9.429 11.331,-17.169 12.347,-17.064 13.103,-37.309 -7.974,3.089 -10.479,4.308 -16.706,10.126 -0.426,4.672 -0.601,11.232 -2.646,15.214 l -1.232,-0.029 c -1.969,-3.952 -1.688,-7.436 -1.792,-11.86 -6.654,3.934 -19.757,11.239 -27.296,10.902 l -0.838,-1.306 c 5.689,-8.641 22.658,-12.968 24.254,-16.921 -1.406,-0.403 -2.808,-0.821 -4.206,-1.252 -3.678,-1.093 -6.421,-1.164 -6.686,-5.417 17.705,2.021 19.743,1.822 35.759,-5.175 -8.033,-4.995 -12.995,-7.427 -22.568,-7.615 -3.367,-0.066 -8.701,0.421 -11.194,-1.538 l 0.246,-1.114 c 3.033,-1.067 4.834,-1.744 7.711,-3.167 l -0.04,-1.466 c -6.465,-5.259 -22.577,-7.176 -24.49,-15.578 l 1.187,-1.823 c 4.337,-0.288 9.834,4.17 15.576,4.771 l 4.472,-5.044 c 2.636,4.343 3.859,7.356 7.625,10.917 1.89,-2.201 -1.822,-3.433 0.944,-10.074 l -1.329,1.671 1.225,-1.703 c 2.092,2.058 5.631,12.766 8.137,17.573 6.365,4.424 8.37,4.887 15.809,7.057 0.026,-5.126 -0.95,-9.218 -1.917,-14.233 -5.038,-5.432 -9.97,-9.798 -15.449,-14.75 4.713,1.483 14.196,5.972 16.943,6.05 0.566,-3.7 -6.167,-7.4 -6.032,-11.099 3.687,0.782 3.938,1.891 7.006,4.665 -0.424,-6.591 -0.883,-16.8 0.437,-23.142 z"
     id="path13" />
  <path
     fill="#acdbdd"
     d="m 1863.8139,124.839 c 2.92,1.479 3.3,2.722 3.38,6.034 0.32,14.963 -0.03,29.946 -0.02,44.926 v 97.635 l -0.1,136.074 c -0.03,23.333 0.07,46.854 -0.23,70.189 -0.04,3.057 -0.41,4.913 -2.4,7.325 l -0.35,-0.364 c -1.84,-1.879 -2.6,-3.271 -2.73,-5.965 -0.75,-16.265 -0.51,-33.386 -0.51,-49.64 v -97.598 l 0.02,-133.765 c 0.01,-22.224 -0.12,-44.849 0.22,-67.093 0.07,-4.402 0.38,-4.737 2.72,-7.758 z"
     id="path14" />
  <path
     fill="#acdbdd"
     d="m 23.7549,126.923 c 1.932,0.745 1.463,0.628 3.151,1.981 1.846,4.751 0.805,72.992 0.795,81.572 l 0.052,150.76 c 0.011,18.038 2.061,97.801 -1.113,109.537 l -3.265,1.827 c -2.568,-5.225 -2.003,-25.597 -2.038,-32.322 l -0.169,-68.115 -0.011,-155.511 c 0.012,-26.778 -0.088,-53.695 0.184,-80.473 0.038,-3.679 0.572,-5.999 2.414,-9.256 z"
     id="path15" />
  <path
     fill="url(#Gradient2)"
     d="m 1377.5939,998.532 c 20.85,-2.23 43.26,0.7 64.18,1.34 53.3,1.65 104.14,15.56 156.46,21.46 -2.16,0.99 -5.59,2.44 -7.52,3.59 -6.4,0.16 -38.47,-5.26 -46.79,-6.39 -28.05,-3.89 -56.23,-6.76 -84.49,-8.6 -16.13,-1.05 -32.32,-1.72 -48.53,-1.61 -6.1,0.04 -2.72,3.52 -7.68,3.3 -8.82,-0.39 -55.56,-1.14 -60.83,3.48 l -14.66,0.73 0.33,-2.81 c 2.94,-3.15 1.93,0.93 7.26,-1.21 l 0.79,-2.74 c 7.33,-4.06 24.07,4.4 37.64,-2.87 1.73,-3.31 0.55,-1.23 -0.89,-5.94 3.41,-0.36 2.47,0.22 4.73,-1.73 z"
     id="path16"
     style="fill:url(#Gradient2)" />
  <path
     fill="#96b7b8"
     fill-opacity="0.0117647"
     d="m 158.4669,992.722 c 13.888,1.47 25.743,2.09 39.648,4.43 -4.182,1.84 -6.885,3.77 -11.075,5.05 -11.859,3.62 -27.347,-1.57 -37.821,3.46 l -0.581,1.17 c -5.702,-0.52 -6.893,-0.45 -12.569,0.4 l -1.405,1.4 c 2.232,1.49 5.591,1.47 8.181,1.36 l 1.017,1.48 c -2.909,0.32 -10.237,0.41 -11.394,1.79 l 1.195,2.14 -1.534,1.86 c 2.102,1.8 1.744,1.24 5.007,1.68 l -1.019,0.74 c -2.754,0.92 -2.61,0.85 -4.317,3.22 -2.811,0.43 -4.067,0.5 -6.915,0.51 2.047,2.85 5.753,1.76 9.507,5.19 -4.378,1.75 -10.382,1.98 -14.145,-1.16 -3.335,-5.75 0.619,-8.35 0.772,-13.99 -12.806,1.65 -22.067,3.41 -34.709,6.19 -2.687,-1.24 -2.025,-1.16 -4.039,-3.87 1.185,-4.6 2.539,-1.64 6.16,-6.04 l -2.684,-1.76 0.474,-1.58 c 3.142,-2.05 2.188,-2.13 5.147,-1.83 2.045,1.92 2.992,3.02 4.758,5.21 6.245,-0.12 6.731,-8.38 13.433,-4.95 2.295,1.17 4.466,0.68 6.988,0.41 l -0.084,-1.64 c -6.597,-9.36 -25.875,-0.05 -36.124,-2.98 24.096,-8.25 54.604,-4.83 78.128,-7.89 z m -32.71,11.41 c -1.141,-3.32 -0.866,-4.42 -3.332,-6.19 -2.761,0.47 -5.713,1.36 -8.19,0.33 5.013,8.4 6.965,2.42 10.856,5.9 z"
     id="path17" />
  <path
     fill="#acdbdd"
     d="m 24.1599,582.029 c 1.166,0.699 2.704,2.065 3.807,2.965 2.032,4.026 1.663,45.813 1.726,54.048 l 0.298,109.472 0.218,60.753 c 0.044,10.952 0.23,22.347 -0.315,33.286 -0.2,4.009 -0.793,3.959 -3.198,6.559 l -2.165,-1.76 c -1.366,-6.587 -1.797,-259.716 -0.371,-265.323 z"
     id="path18" />
  <path
     fill="#acdbdd"
     d="m 590.9419,4.69 c 17.822,-2.043 24.917,15.484 18.695,29.937 -3.805,8.837 -9.906,20.805 -16.9,27.459 -7.414,-4.761 -18.654,-22.997 -20.322,-31.66 -2.871,-14.913 4.159,-23.263 18.527,-25.736 z m 2.168,28.417 c 3.28,-0.369 6.104,-2.482 7.383,-5.524 1.279,-3.042 0.813,-6.538 -1.218,-9.14 -2.031,-2.601 -5.31,-3.901 -8.572,-3.398 -4.902,0.756 -8.299,5.294 -7.643,10.21 0.655,4.917 5.122,8.406 10.05,7.852 z"
     id="path19" />
  <path
     fill="#acdbdd"
     d="m 1862.6439,670.843 c 1.72,0.729 2.3,1.149 3.87,2.101 1.05,6.667 0.36,20.546 0.34,27.71 l -0.17,57.383 -0.52,107.495 c -0.08,18.55 -0.06,37.3 -0.33,55.84 -0.06,4.17 -0.17,4.45 -2.34,7.3 -1.3,-0.78 -2.04,-1.41 -3.22,-2.32 -0.82,-7.08 -0.42,-23.49 -0.41,-31.27 l 0.09,-57.402 0.38,-104.426 c 0.06,-9.34 -0.78,-55.781 2.31,-62.411 z"
     id="path20" />
  <path
     fill="#acdbdd"
     d="m 1808.7739,0 c 5.53,4.331 2.7,22.697 8.74,31.062 7.9,10.944 27.01,10.005 41.02,12.806 -33.68,7.79 -44.02,-3.296 -45.98,41.47 -0.15,3.444 -0.19,6.904 -2.31,9.553 -2.62,-11.697 -2.52,-28.554 -9.26,-38.704 -6.52,-9.804 -30.46,-11.04 -42.73,-12.911 10.58,-1.801 28.08,-1.713 36.74,-7.235 10.85,-6.925 11.55,-24.731 13.78,-36.041 z"
     id="path21" />
  <path
     fill="#acdbdd"
     d="m 297.7839,10.861 c 7.91,1.756 11.863,10.074 19.198,13.641 6.029,2.932 20.959,0.615 25.488,5.414 -3.167,3.884 -10.922,3.597 -14.623,8.712 -6.52,9.011 -6.912,22.972 -14.385,31.25 l -1.112,-0.692 c -0.569,-5.41 1.339,-18.217 2.107,-23.866 -3.971,1.477 -9.337,2.904 -13.504,4.136 -9.138,4.684 -32.033,11.759 -42.158,10.052 1.718,-6.52 28.849,0.459 46.024,-20.384 l -6.12,-1.595 -0.586,-1.404 c 1.985,-3.169 1.486,-2.203 5.699,-3.941 0.638,-1.352 0.491,-1.975 0.303,-3.432 l 5.153,-0.825 c -3.676,-4.881 -8.398,-10.776 -11.045,-16.154 z"
     id="path22" />
  <path
     fill="url(#Gradient1)"
     d="m 1655.9039,1024.352 c 20.93,-1.75 36.23,-1.59 57.7,-5.12 3.33,4.28 2.93,2.53 2.7,6.83 -2.7,3.84 -5.24,5.51 -5.98,9.18 l 1.21,2.31 c 3.82,1.2 21.83,2.97 22.45,3.59 -9.59,0.54 -44.87,2.66 -53.09,0.19 -3.51,-2.29 -15.69,-1.84 -20.45,-1.87 -0.25,-5.58 4.84,-5.26 8.79,-9.12 l -0.83,-1.7 c -6.33,-4.02 -9.36,1.44 -12.5,-4.29 z"
     id="path23"
     style="fill:url(#Gradient1)" />
  <path
     fill="#acdbdd"
     d="m 359.8239,27.534 c 36.381,-1.229 73.564,0.428 110.015,-0.277 14.965,-0.289 30.196,0.056 45.158,0.196 1.846,0.017 2.193,1.139 3.082,2.414 -0.616,3.284 0.167,1.979 -2.376,4.078 -35.423,-0.795 -71.402,0.153 -106.82,-0.116 -10.587,-0.08 -38.264,0.902 -46.813,-0.463 -2.362,-2.156 -1.616,-1.778 -2.246,-5.832 z"
     id="path24" />
  <path
     fill="#acdbdd"
     d="m 145.0849,27.315 92.451,-0.054 c 14.719,-0.01 33.89,-0.546 48.305,0.389 1.543,2.103 0.835,2.274 0.365,5.861 -32.859,1.286 -66.96,-0.489 -99.939,0.208 -12.787,0.27 -28.034,0.426 -40.704,-0.446 l -1.097,-1.371 z"
     id="path25" />
  <path
     fill="#c2e9e8"
     fill-opacity="0.611765"
     d="m 451.6789,1014.022 c 19.227,-1.78 28.318,-2.02 47.174,3.6 5.29,1.58 18.714,-0.99 24.668,1.07 -15.311,3.16 -26.672,-2.04 -40.142,6.43 -4.215,2.65 -5.194,1.02 -7.748,6.35 -3.046,-0.42 -7.894,-1.53 -10.012,0.39 -0.987,0.89 -5.214,4.47 -5.965,4.55 -19.809,2.24 -47.299,2.59 -66.607,2.99 9.302,-8.39 50.635,-9.74 63.647,-8.42 9.172,-5.71 10.784,-4.96 21.232,-7.19 1.276,-1.53 1.157,-2.38 1.36,-4.36 l -1.42,-0.3 -3.329,2.42 c -4.699,0.39 -18.87,-4.54 -22.858,-7.53 z"
     id="path26" />
  <path
     fill="#acdbdd"
     fill-opacity="0.298039"
     d="m 259.5259,1003.002 c 1.163,-1.82 2.658,-4.69 5.114,-4.68 10.813,0.04 38.048,-7.48 46.359,0.31 8.22,7.7 13.285,2.16 17.212,4.43 -1.161,1.29 -0.716,1.33 -2.075,1.47 -7.703,0.76 -5.791,6.05 -12.654,8.23 -18.437,-0.84 -36.24,-4.78 -53.956,-9.76 z m 54.253,6.08 0.42,-2.6 c -5.1,-6.18 -27.95,-7.21 -35.687,-5.81 4.127,7.68 28.24,10.56 35.267,8.41 z"
     id="path27" />
  <path
     fill="#acdbdd"
     fill-opacity="0.45098"
     d="m 278.5119,1000.672 c 7.737,-1.4 30.587,-0.37 35.687,5.81 l -0.42,2.6 c -7.027,2.15 -31.14,-0.73 -35.267,-8.41 z"
     id="path28" />
  <path
     fill="#c2e9e8"
     fill-opacity="0.839216"
     d="m 411.4319,1019.282 c 7.663,0.1 12.802,0.07 20.384,1.52 4.12,0.79 8.204,-5.07 15.139,-0.89 -0.095,1.21 -0.204,2.22 -0.368,3.43 l 0.881,1.35 c -5.159,1.16 -15.153,0.27 -17.737,1.76 12.748,7.47 13.505,-4.56 26.963,4.53 -13.012,-1.32 -54.345,0.03 -63.647,8.42 -5.098,1.53 -8.887,2.82 -14.265,1.41 -0.445,-3.22 -0.958,-5.41 -0.468,-8.65 5.954,-2.67 9.361,-0.08 15.038,-1.45 2.952,-0.71 8.325,-5.08 11.149,-5.25 4.462,-0.27 13.369,0.98 17.227,-1.27 -7.125,-8.3 -24.963,2.05 -30.845,-2.24 1.718,-1.29 2.95,-0.86 5.567,-1 l -3.868,-0.52 c 4.124,-1.03 11.024,-1.11 15.516,-1.32 z"
     id="path29" />
  <path
     fill="#acdbdd"
     d="m 1864.4239,498.214 c 5.24,5.387 1.06,15.967 2.9,19.08 4.74,8.04 17.46,9.767 25.44,12.365 -20.9,1.741 -24.45,1.657 -26.74,23.467 -0.43,0.568 -0.1,0.269 -1.26,0.45 -4.62,-19.029 -5.06,-19.517 -23.81,-24.829 20.55,-5.174 20.5,-11.192 23.47,-30.533 z"
     id="path30" />
  <path
     fill="#acdbdd"
     d="m 23.7879,488.963 c 8.602,15.657 -1.226,21.469 23.761,26.341 -21.384,7.147 -17.211,7.151 -21.974,25.87 -1.983,-3.539 -2.496,-10.032 -5.353,-15.077 C 16.0138,518.667 8.0109,517.578 0,515.258 c 19.508,-2.757 20.5019,-8.83 23.7879,-26.295 z"
     id="path31" />
  <path
     fill="#acdbdd"
     fill-opacity="0.894118"
     d="m 1327.7339,1015.832 14.66,-0.73 c -3.87,3.28 -9.06,4.49 -11.33,8.12 l -0.25,2.73 c 1.73,1.36 1.87,1.54 3.94,2.52 0,0.83 0.01,1.42 0.31,2.21 l -1.63,0.52 c 1.61,0.74 3.23,1.46 4.85,2.17 -1.65,0.46 -2.06,0.52 -3.63,1.2 3.34,0.75 12.7,3.35 15.37,2.5 v -0.91 l -2.71,-0.15 c -1.33,-1.79 -0.57,-1.4 -2.28,-2.18 l -0.56,-1.09 -0.56,-0.13 3.39,-0.74 -0.33,-1 c 4.02,-2.98 2.1,-2.24 7.44,-2.5 2.83,1.43 3.39,1.92 5.79,4.01 7.93,1.22 7.9,-0.43 10.64,7.43 -12.62,-1.31 -30.93,0.81 -41.36,-1.88 1.2,-1.26 1.41,-1.22 1.82,-2.87 -4.21,-1.49 -17.58,-3.7 -22.62,-4.63 -2.95,3.25 -4.4,5.63 -8.61,6.38 1.73,-2.03 3.45,-4.06 5.14,-6.12 18.19,-4.19 5.67,-10.02 28.85,-10.63 -4.42,-1.46 -9.77,-2.43 -14.39,-3.39 2.97,-0.13 5.12,-0.42 8.06,-0.84 z"
     id="path32" />
  <path
     fill="#acdbdd"
     d="m 1862.0039,567.925 1.36,0.794 c 2.98,3.835 1.12,62.658 1.02,71.088 -0.02,2.522 -1.14,3.576 -2.67,5.289 l -2.1,-1.669 c -0.57,-1.138 -1.29,-2.544 -1.3,-4.549 -0.13,-21.854 -1.57,-46.24 0.97,-67.761 1.12,-1.32 2.03,-2.384 2.72,-3.192 z"
     id="path33" />
  <path
     fill="#acdbdd"
     d="m 1844.2539,78.97 c 9.77,8.452 -4.23,14.836 22.99,21.108 -15.81,4.133 -18.11,4.246 -21.07,21.042 l -0.43,1.004 c -6.77,-6.438 6.02,-13.597 -20.13,-21.833 13.47,-4.706 15.62,-7.54 18.64,-21.321 z"
     id="path34" />
  <path
     fill="#c2e9e8"
     fill-opacity="0.768627"
     d="m 443.6539,1014.922 8.025,-0.9 c 3.988,2.99 18.159,7.92 22.858,7.53 l 3.329,-2.42 1.42,0.3 c -0.203,1.98 -0.084,2.83 -1.36,4.36 -10.448,2.23 -12.06,1.48 -21.232,7.19 -13.458,-9.09 -14.215,2.94 -26.963,-4.53 2.584,-1.49 12.578,-0.6 17.737,-1.76 l -0.881,-1.35 c 0.164,-1.21 0.273,-2.22 0.368,-3.43 -6.935,-4.18 -11.019,1.68 -15.139,0.89 -7.582,-1.45 -12.721,-1.42 -20.384,-1.52 8.757,-2.07 29.249,-3.49 32.222,-4.36 z"
     id="path35" />
  <path
     fill="#c2e9e8"
     fill-opacity="0.337255"
     d="m 1611.7039,1022.952 c 15.84,2.13 32.09,-0.22 44.2,1.4 3.14,5.73 6.17,0.27 12.5,4.29 l 0.83,1.7 c -3.95,3.86 -9.04,3.54 -8.79,9.12 -3.18,0.34 -7.12,0.07 -9.74,-1.92 -0.61,-2.05 -0.61,-2.72 -2.3,-4.08 -4.64,-1.24 -14.02,-5.02 -17.51,-3.31 -1.82,0.88 -3.05,0.79 -5.26,0.95 l -0.99,-1.62 -0.31,-1.29 c -2.92,-1.93 -6.06,-1.75 -9.66,-2.03 z"
     id="path36" />
  <path
     fill="#acdbdd"
     d="m 1108.5639,979.842 c 7.12,11.21 -2.15,14.88 16.04,21.53 l 0.05,1.07 c -12.28,4.73 -11.3,7.05 -14.86,19 -5.5,-15.7 -4.61,-14.38 -20.32,-19.88 15.86,-2.93 17.24,-6.65 19.09,-21.72 z"
     id="path37" />
  <path
     fill="#acdbdd"
     d="m 249.4639,59.871 c 1.835,-0.384 1.772,-0.212 3.515,0.59 l -0.85,1.278 c -17.919,5.843 -82.065,12.602 -102.425,12.762 l -2.576,-0.56 0.392,-1.317 c 9.531,-3.281 40.229,-4.95 51.713,-6.282 16.722,-1.939 33.47,-4.172 50.231,-6.471 z"
     id="path38" />
  <path
     fill="#acdbdd"
     d="m 1730.3239,12.178 c 0.8,0.792 1.18,1.723 1.58,2.779 3.65,9.611 8.02,11.088 17.33,14.537 l -12.99,3.672 c -2.46,3.864 -3.7,7.285 -5.41,11.511 l -1.27,-0.349 c -3.8,-10.413 -6.85,-10.936 -17.02,-14.855 4.35,-2.111 8.76,-3.603 13.31,-5.244 1.9,-3.807 3.13,-8 4.47,-12.051 z"
     id="path39" />
  <path
     fill="#c2e9e8"
     fill-opacity="0.529412"
     d="m 1624.6439,1029.482 0.99,1.62 c 2.21,-0.16 3.44,-0.07 5.26,-0.95 3.49,-1.71 12.87,2.07 17.51,3.31 1.69,1.36 1.69,2.03 2.3,4.08 2.62,1.99 6.56,2.26 9.74,1.92 4.76,0.03 16.94,-0.42 20.45,1.87 -18.97,0.45 -33.62,1.33 -52.1,2.34 1.96,-0.84 3.5,-2.09 5.42,-3.24 1.86,0.69 2.59,1.19 4.52,0.71 -3.08,-9.22 -10.13,-0.04 -20.61,-5.55 l -0.28,-1.17 4.19,-2.47 c -2.27,-0.76 -4.4,-1.39 -6.7,-2.05 3.46,-1.24 5.64,-0.73 9.31,-0.42 z"
     id="path40" />
  <path
     fill="#c2e9e8"
     fill-opacity="0.862745"
     d="m 1600.9939,1026.482 c 4.56,-2.18 7.42,0.41 13.68,-0.32 3.6,0.28 6.74,0.1 9.66,2.03 l 0.31,1.29 c -3.67,-0.31 -5.85,-0.82 -9.31,0.42 2.3,0.66 4.43,1.29 6.7,2.05 l -4.19,2.47 0.28,1.17 c 10.48,5.51 17.53,-3.67 20.61,5.55 -1.93,0.48 -2.66,-0.02 -4.52,-0.71 -1.92,1.15 -3.46,2.4 -5.42,3.24 -6.51,0.33 -14.39,-0.09 -21,-0.28 l 3.68,-1.22 c 0.57,-6.04 -3.48,-11.77 -9.54,-12.55 z"
     id="path41" />
  <path
     fill="#c2e9e8"
     fill-opacity="0.698039"
     d="m 1290.0439,1023.002 c 5.06,-3.46 23.07,-5.9 29.63,-6.33 4.62,0.96 9.97,1.93 14.39,3.39 -23.18,0.61 -10.66,6.44 -28.85,10.63 l -2.04,0.14 0.22,0.18 c -1.14,-0.25 -2.84,-0.47 -3.76,-1.03 0.87,-0.72 1.73,-1.46 2.58,-2.21 -2.71,-0.65 -2.82,-0.7 -5.58,-0.69 l 0.3,2.35 c -4.11,1.48 -6.17,1.35 -10.43,1.47 2.61,-1.52 5.19,-3.11 7.72,-4.76 l -0.49,-2.21 0.57,1.98 0.83,-0.81 -1.5,-1.36 c 0.7,-0.02 0.35,0.09 0.99,-0.45 -1.53,-0.06 -3.06,-0.16 -4.58,-0.29 z"
     id="path42" />
  <path
     fill="#acdbdd"
     d="m 629.9799,27.517 c 9.398,-0.153 35.576,-0.885 44.168,0.283 1.313,2.538 0.765,2.351 0.405,5.795 -12.09,0.15 -32.026,0.998 -43.513,0.092 -1.671,-2.552 -1.064,-2.47 -1.06,-6.17 z"
     id="path43" />
  <path
     fill="#acdbdd"
     d="m 212.4309,931.172 c 1.162,2.37 2.611,7.44 3.484,10.15 3.545,2.26 7.582,4.42 11.274,6.49 -13.595,2.94 -10.077,3.92 -14.497,15.79 l -0.601,-0.62 c -2.016,-14.62 -9.077,-13.7 -21.665,-15.81 14.96,-2.64 17.185,-0.88 22.005,-16 z"
     id="path44" />
  <path
     fill="#acdbdd"
     fill-opacity="0.223529"
     d="m 284.7859,1018.302 c 6.277,0.12 18.228,2.11 24.937,2.87 11.339,1.19 22.734,1.77 34.135,1.73 17.595,0 35.195,-4.21 52.27,-5.37 l 0.804,-0.05 c 3.484,0.18 8.888,-0.23 11.166,1.63 -4.492,0.21 -11.392,0.29 -15.516,1.32 -11.064,1.33 -47.386,5 -57.394,3.35 -5.245,-0.53 -12.943,-0.1 -18.389,0.05 -7.629,-1.69 -23.786,-2.02 -34.107,-3.89 z"
     id="path45" />
  <path
     fill="#acdbdd"
     d="m 1505.7939,53.369 c 0.12,0.189 1.24,1.878 1.3,2.072 1.7,5.55 6.7,7.013 9.14,11.351 0.11,0.323 0.22,0.646 0.33,0.969 -5.83,3.62 -7.05,3.374 -9.93,9.339 l -0.45,0.951 c 0.07,1.263 0.19,0.584 -0.66,1.962 -3.38,-8.359 -1.82,-7.279 -8.58,-12.156 0.17,-1.891 7.31,-7.947 8.85,-14.488 z"
     id="path46" />
  <path
     fill="#c2e9e8"
     fill-opacity="0.745098"
     d="m 148.5579,1026.102 c 2.503,0.13 2.811,0.03 4.981,1.27 4.917,2.82 12.201,0.73 16.265,4.17 -0.725,1.57 -1.676,1.8 -3.245,2.66 3.022,0.1 8.415,1.16 11.228,2.11 l 0.216,3.48 c -8.421,-0.31 -26.613,-2.26 -31.321,-9.62 l 2.235,-2.43 z"
     id="path47" />
  <path
     fill="#acdbdd"
     d="m 1715.1339,967.062 c 3.01,7.19 7.26,9.89 7.85,12.48 -3.56,4.68 -4.63,5.78 -6.9,11.19 l -0.81,-0.69 c -3.07,-8.06 -5.47,-7.99 -13.31,-11.31 1.18,-0.4 2.35,-0.85 3.5,-1.34 6.3,-2.66 7.31,-4.37 9.67,-10.33 z"
     id="path48" />
  <path
     fill="#acdbdd"
     d="m 64.4869,208.199 c 1.131,3.649 4.201,9.994 7.793,11.455 l 0.437,1.014 0.138,-0.709 0.213,0.888 -1.965,-0.026 c -3.514,4.231 -4.876,5.696 -6.391,10.994 -1.478,-3.21 -1.94,-4.412 -4.5,-6.91 l -4.494,-4.358 c 3.831,-4.319 5.596,-6.181 8.238,-11.303 z"
     id="path49" />
  <path
     fill="#acdbdd"
     d="m 1831.9239,869.262 c 1.77,1.47 2.39,3.88 4.74,5.66 2.7,2.03 3.71,2.92 3.42,6.06 -4.39,3.84 -3.55,2.92 -5.81,7.94 l -0.44,1.03 c -2.18,-4.5 -6.64,-9.73 -12.11,-9.31 l 1.22,-1.18 0.06,0.81 c 0.26,-0.73 7.7,-9.4 8.92,-11.01 z"
     id="path50" />
  <path
     fill="#c2e9e8"
     fill-opacity="0.215686"
     d="m 921.1539,1039.542 c -31.003,-1.94 -63.101,-1.73 -93.528,-6.26 3.809,-0.57 15.647,0.75 20.315,0.91 18.958,0.64 39.813,3.51 58.674,1.99 2.683,0.18 15.969,0.14 16.319,0.24 -1.87,1.93 -1.45,0.84 -1.78,3.12 z"
     id="path51" />
  <path
     fill="#c2e9e8"
     fill-opacity="0.137255"
     d="m 1286.5039,1030.902 -0.01,-0.85 c -2.62,-2.9 -6.46,1.6 -11.4,-0.8 -0.07,-1.39 -0.08,-2.64 -0.08,-4.02 -3.41,-2.08 -3.18,-0.53 -8.57,-0.51 l -0.46,-1.28 c 5.6,-1.26 18.42,-1.53 24.06,-0.44 1.52,0.13 3.05,0.23 4.58,0.29 -0.64,0.54 -0.29,0.43 -0.99,0.45 l 1.5,1.36 -0.83,0.81 -0.57,-1.98 0.49,2.21 c -2.53,1.65 -5.11,3.24 -7.72,4.76 z"
     id="path52" />
  <path
     fill="#acdbdd"
     fill-opacity="0.317647"
     d="m 396.9319,1017.482 c 11.816,-1.27 27.385,-4.12 38.998,-6.75 3.007,1.26 5.395,1.95 7.724,4.19 -2.973,0.87 -23.465,2.29 -32.222,4.36 l -3.334,-0.17 c -2.278,-1.86 -7.682,-1.45 -11.166,-1.63 z"
     id="path53" />
  <path
     fill="#acdbdd"
     d="m 769.5739,50.141 c 1.324,1.472 2.608,2.979 3.852,4.52 2.882,3.588 2.754,3.133 2.368,6.642 -2.466,3.014 -3.843,5.278 -5.874,8.533 -2.488,-5.283 -6.82,-8.435 -7.196,-10.158 2.794,-3.449 4.422,-5.825 6.85,-9.537 z"
     id="path54" />
  <path
     fill="#acdbdd"
     d="m 1017.4139,1004.282 c 1.55,1.64 1.29,4.45 4.63,6.19 1.73,0.9 2.58,1.82 3.65,3.38 -4.1,3.11 -5.27,3.87 -7.56,8.49 l -0.47,0.98 c -0.13,0.43 -0.76,1.2 -1.06,1.63 -1.69,-6.23 -5.25,-8.91 -5.24,-12.55 3.16,-3.07 3.86,-4.45 6.05,-8.12 z"
     id="path55" />
  <path
     fill="#acdbdd"
     d="m 23.1029,559.72 c 8.122,3.605 9,11.332 3.729,18.029 l -3.837,-1.323 c -5.7098,-5.499 -3.1051,-10.631 0.108,-16.706 z"
     id="path56" />
  <path
     fill="#c2e9e8"
     fill-opacity="0.882353"
     d="m 136.1169,1019.682 c 2.513,1.56 1.118,1.23 4.418,0.53 l 2.89,-2.84 1.127,1.67 c -0.65,2.42 -1.238,2.96 -0.682,5.03 l 3.388,0.15 1.3,1.88 0.359,1.64 c -5.281,0.72 -11.849,-1.03 -14.525,0.86 -3.754,-3.43 -7.46,-2.34 -9.507,-5.19 2.848,-0.01 4.104,-0.08 6.915,-0.51 1.707,-2.37 1.563,-2.3 4.317,-3.22 z"
     id="path57" />
  <path
     fill="#acdbdd"
     fill-opacity="0.027451"
     d="m 644.5679,998.372 c 4.062,-1.38 7.422,-2.33 11.536,-0.72 l 0.863,0.94 c 6.749,2.47 16.312,0.79 19.814,2.64 l 6.285,2.35 3.769,4.55 c -8.756,-3.8 -30.915,-6.51 -42.267,-9.76 z"
     id="path58" />
  <path
     fill="#acdbdd"
     fill-opacity="0.941176"
     d="m 656.9669,998.592 c 9.462,-2.74 23.556,-3.99 33.282,-2.32 -4.71,6.44 -7.143,2.22 -13.468,4.96 -3.502,-1.85 -13.065,-0.17 -19.814,-2.64 z"
     id="path59" />
  <path
     fill="#acdbdd"
     d="m 1808.1239,927.132 c -0.66,-8.66 -1.51,-15.06 2.18,-22.88 l 1.45,-0.38 c 0.25,0.58 0.49,1.15 0.73,1.73 l 0.3,0.8 c 1.65,4.27 1.08,8.07 0.88,12.71 l -0.35,0.6 c -1.65,2.79 -2.04,3.92 -3.09,6.97 z"
     id="path60" />
  <path
     fill="#acdbdd"
     d="m 1769.4739,83.001 c 2.44,2.867 5.44,5.789 5.81,9.24 l -4.81,3.135 c -1.16,0.703 -1.74,0.267 -3.48,0.017 -3.87,-5.132 -2.18,-8.482 2.48,-12.392 z"
     id="path61" />
  <path
     fill="#acdbdd"
     d="m 1236.6839,1023.032 c 1.78,-0.72 3.8,-0.41 5.29,0.79 1.5,1.2 2.22,3.11 1.91,5 -0.32,1.89 -1.63,3.46 -3.43,4.11 -2.72,0.98 -5.73,-0.4 -6.76,-3.1 -1.02,-2.7 0.3,-5.73 2.99,-6.8 z"
     id="path62" />
  <path
     fill="#acdbdd"
     d="m 1654.2039,53.91 c 2.64,-0.85 5.47,0.574 6.37,3.2 0.89,2.626 -0.49,5.484 -3.1,6.42 -1.73,0.619 -3.65,0.258 -5.04,-0.943 -1.39,-1.202 -2.02,-3.058 -1.65,-4.856 0.36,-1.798 1.67,-3.258 3.42,-3.821 z"
     id="path63" />
  <path
     fill="#acdbdd"
     d="m 1817.6239,136.003 c 1.57,-1.059 3.59,-1.164 5.25,-0.272 1.67,0.892 2.7,2.634 2.68,4.522 -0.01,1.889 -1.08,3.612 -2.76,4.475 -2.39,1.226 -5.32,0.381 -6.69,-1.93 -1.37,-2.31 -0.7,-5.288 1.52,-6.795 z"
     id="path64" />
  <path
     fill="#acdbdd"
     d="m 71.0659,157.72 c 1.657,-0.78 3.606,-0.6 5.092,0.47 1.485,1.07 2.274,2.862 2.06,4.68 -0.214,1.819 -1.397,3.378 -3.09,4.074 -2.53,1.039 -5.427,-0.128 -6.53,-2.632 -1.102,-2.503 -0.007,-5.428 2.468,-6.592 z"
     id="path65" />
  <path
     fill="#acdbdd"
     fill-opacity="0.52549"
     d="m 1598.2339,1021.332 c 2.13,0.29 12.63,1.26 13.47,1.62 l 2.97,3.21 c -6.26,0.73 -9.12,-1.86 -13.68,0.32 l -10.28,-1.56 c 1.93,-1.15 5.36,-2.6 7.52,-3.59 z"
     id="path66" />
  <path
     fill="#acdbdd"
     d="m 395.4399,56.031 c 2.562,-0.714 5.23,0.728 6.037,3.262 0.807,2.535 -0.537,5.254 -3.041,6.152 -1.702,0.61 -3.602,0.242 -4.954,-0.96 -1.351,-1.202 -1.938,-3.046 -1.53,-4.808 0.408,-1.762 1.746,-3.16 3.488,-3.646 z"
     id="path67" />
  <path
     fill="#c2e9e8"
     fill-opacity="0.85098"
     d="m 918.7519,1032.212 c -0.697,-0.79 -1.522,-1.3 -2.387,-1.89 l -0.287,-1.53 -0.705,0.89 -0.973,-1.74 c 2.344,-0.74 2.882,-1.24 3.686,-3.57 6.558,1.55 4.878,0.53 10.038,5.04 l 0.7,1.83 c -2.6,1.5 -3.61,0.58 -7.23,-0.15 l -1.796,-1.09 c -0.338,1.2 -0.375,1.3 -0.555,2.56 z"
     id="path68" />
  <path
     fill="#acdbdd"
     fill-opacity="0.886275"
     d="m 683.0659,1003.582 c 5.87,0.59 11.445,0.73 16.043,4.57 l 0.611,1.85 c -4.049,2.24 -8.873,0.02 -12.885,-1.87 z"
     id="path69" />
  <path
     fill="#acdbdd"
     d="m 536.2149,50.816 2.447,-0.214 0.291,1.219 c -2.875,3.684 -11.812,4.907 -16.169,5.531 -1.401,-0.507 -1.402,-0.699 -2.644,-1.61 l 0.777,-1.626 c 3.79,-1.841 10.873,-2.609 15.298,-3.3 z"
     id="path70" />
  <path
     fill="#acdbdd"
     d="m 573.7259,1016.702 c 1.746,-0.22 3.472,0.54 4.489,1.98 1.017,1.44 1.161,3.32 0.374,4.89 -0.787,1.57 -2.378,2.59 -4.137,2.64 -2.544,0.07 -4.694,-1.87 -4.888,-4.41 -0.194,-2.54 1.637,-4.78 4.162,-5.1 z"
     id="path71" />
  <path
     fill="#acdbdd"
     fill-opacity="0.721569"
     d="m 918.7519,1032.212 0.491,0.35 c 0.18,-1.26 0.217,-1.36 0.555,-2.56 l 1.796,1.09 c 1.57,1.63 2.82,2.68 3.82,4.72 l -2.48,0.61 c -0.35,-0.1 -13.636,-0.06 -16.319,-0.24 2.3,-0.27 4.335,-0.22 6.153,-1.54 l -1.711,0.63 -0.143,-3.36 -1.983,-0.83 c 3.609,0.02 6.288,0.56 9.821,1.13 z"
     id="path72" />
  <path
     fill="#acdbdd"
     d="m 484.0279,60.809 c 1.662,-0.337 1.82,-0.129 3.503,0.282 l -0.581,1.71 c -3.69,3.019 -4.264,3.23 -8.741,4.6 -2.579,-0.723 -3.09,-1.087 -5.453,-2.421 l -0.242,-1.477 c 3.276,-1.941 7.609,-2.143 11.514,-2.694 z"
     id="path73" />
  <path
     fill="#acdbdd"
     fill-opacity="0.631373"
     d="m 1335.0639,1030.682 c 4.98,-0.8 7.15,-1.48 11.91,0.19 l 0.33,1 -3.39,0.74 0.56,0.13 0.56,1.09 c 1.71,0.78 0.95,0.39 2.28,2.18 l 2.71,0.15 v 0.91 c -2.67,0.85 -12.03,-1.75 -15.37,-2.5 1.57,-0.68 1.98,-0.74 3.63,-1.2 -1.62,-0.71 -3.24,-1.43 -4.85,-2.17 z"
     id="path74" />
  <path
     fill="#acdbdd"
     d="m 172.2959,899.012 c 2.105,-1.08 4.681,-0.29 5.826,1.78 1.145,2.06 0.447,4.67 -1.578,5.88 -1.374,0.83 -3.088,0.84 -4.471,0.03 -1.382,-0.81 -2.213,-2.31 -2.167,-3.91 0.046,-1.61 0.963,-3.05 2.39,-3.78 z"
     id="path75" />
  <path
     fill="#acdbdd"
     d="m 439.2539,70.758 c 1.819,0.253 0.93,-0.008 2.528,1.334 -2.288,3.828 -8.939,4.645 -12.964,5.169 l -2.371,-1.328 0.244,-1.594 c 3.291,-2.03 8.607,-2.769 12.563,-3.581 z"
     id="path76" />
  <path
     fill="#acdbdd"
     d="m 384.4159,79.684 c 3.849,-0.15 7.623,-0.703 11.086,0.698 -1.136,2.41 -1.678,1.907 -5.007,3.309 -3.419,0.688 -7.165,1.514 -10.239,-0.318 0.901,-2.52 1.102,-1.921 4.16,-3.689 z"
     id="path77" />
  <path
     fill="#acdbdd"
     d="m 333.2339,83.824 c 4.123,-0.425 10.142,-0.871 14.001,0.526 l -0.431,1.355 -3.46,1.6 c -4.113,0.229 -9.991,0.636 -13.683,-1.166 l 0.423,-1.111 z"
     id="path78" />
  <path
     fill="#c2e9e8"
     fill-opacity="0.117647"
     d="m 1296.9339,1029.432 -0.3,-2.35 c 2.76,-0.01 2.87,0.04 5.58,0.69 -0.85,0.75 -1.71,1.49 -2.58,2.21 0.92,0.56 2.62,0.78 3.76,1.03 l -0.22,-0.18 2.04,-0.14 c -1.69,2.06 -3.41,4.09 -5.14,6.12 -2.99,-2.51 -1.63,-1.75 -6.09,-2.43 l 0.03,-1.15 3.23,-2.17 z"
     id="path79" />
  <path
     fill="#acdbdd"
     d="m 511.7209,56.078 0.813,1.264 c -3.288,3.794 -9.271,3.57 -14.476,4.09 l -0.976,-1.065 c 3.324,-3.667 9.606,-3.698 14.639,-4.289 z"
     id="path80" />
  <path
     fill="#acdbdd"
     d="m 285.8829,84.888 c 2.012,0.162 4.984,0.331 6.129,1.901 -3.294,2.046 -5.07,1.807 -8.949,2.049 -3.056,-0.255 -5.235,-0.068 -7.144,-1.867 3.229,-2.055 6.071,-1.829 9.964,-2.083 z"
     id="path81" />
  <path
     fill="#acdbdd"
     d="m 308.8319,84.834 c 4.498,-0.193 8.044,-0.571 12.452,0.423 l 0.403,1.39 -2.614,1.835 c -4.393,0.062 -7.526,0.315 -11.8,-0.781 l -0.592,-1.281 z"
     id="path82" />
  <path
     fill="#acdbdd"
     d="m 366.3089,81.864 c 3.435,0.028 2.956,-0.544 4.933,1.182 -2.693,2.886 -1.863,1.986 -6.387,3.072 -3.06,-0.09 -3.719,-0.171 -6.666,-0.986 l -0.566,-1.179 c 2.868,-2.203 5.001,-1.891 8.686,-2.089 z"
     id="path83" />
  <path
     fill="#c2e9e8"
     fill-opacity="0.27451"
     d="m 143.8619,1011.472 -1.017,-1.48 c -2.59,0.11 -5.949,0.13 -8.181,-1.36 l 1.405,-1.4 c 5.676,-0.85 6.867,-0.92 12.569,-0.4 -0.595,3.32 -1.626,3.55 -4.776,4.64 z"
     id="path84" />
  <path
     fill="#acdbdd"
     fill-opacity="0.952941"
     d="m 177.7869,1036.312 c 2.134,-2.08 1.99,-2 4.935,-2.48 2.553,1.57 2.428,1.46 3.682,4.19 l 2.637,0.59 c -4.814,2.31 -6.582,0.87 -11.038,1.18 z"
     id="path85" />
  <path
     fill="#acdbdd"
     fill-opacity="0.984314"
     d="m 417.8889,75.761 1.419,0.381 c -2.501,3.913 -9.192,4.622 -13.431,5.058 -1.523,-0.82 -0.885,-0.255 -1.643,-1.994 3.199,-1.875 9.719,-2.718 13.655,-3.445 z"
     id="path86" />
  <path
     fill="#acdbdd"
     fill-opacity="0.988235"
     d="m 461.9309,64.63 0.811,0.753 -0.146,1.65 c -3.43,2.399 -8.179,3.429 -12.318,4.635 -0.914,-1.307 -0.612,-0.574 -0.532,-2.341 3.561,-2.611 7.898,-3.479 12.185,-4.697 z"
     id="path87" />
  <path
     fill="#acdbdd"
     fill-opacity="0.113725"
     d="m 272.7249,1015.012 12.061,3.29 -2.094,1.64 c -5.306,-2.28 -8.09,-2.33 -13.878,-2.95 z"
     id="path88" />
  <path
     fill="#acdbdd"
     fill-opacity="0.658824"
     d="m 398.4309,1000.022 c 3.688,-0.58 5.215,-0.55 8.877,-0.52 l 0.405,0.66 -5.742,1.35 c -4.462,0.23 -5.346,0.19 -9.76,-0.45 l 0.225,-0.58 z"
     id="path89" />
  <path
     fill="#acdbdd"
     fill-opacity="0.803922"
     d="m 316.7989,1023.832 c 5.446,-0.15 13.144,-0.58 18.389,-0.05 -6.226,0.92 -12.185,1.03 -18.389,0.05 z"
     id="path90" />
</svg>
