<?xml version="1.0" encoding="UTF-8" standalone="no"?>
<svg
   version="1.1"
   style="display:block"
   viewBox="0 0 1750.83 1065.8622"
   width="1313.1222"
   height="799.59186"
   preserveAspectRatio="none"
   id="svg2"
   sodipodi:docname="planned_frame.svg"
   inkscape:version="1.4.2 (f4327f4, 2025-05-13)"
   xmlns:inkscape="http://www.inkscape.org/namespaces/inkscape"
   xmlns:sodipodi="http://sodipodi.sourceforge.net/DTD/sodipodi-0.dtd"
   xmlns="http://www.w3.org/2000/svg"
   xmlns:svg="http://www.w3.org/2000/svg">
  <defs
     id="defs2" />
  <sodipodi:namedview
     id="namedview2"
     pagecolor="#ffffff"
     bordercolor="#000000"
     borderopacity="0.25"
     inkscape:showpageshadow="2"
     inkscape:pageopacity="0.0"
     inkscape:pagecheckerboard="0"
     inkscape:deskcolor="#d1d1d1"
     inkscape:zoom="1.1845703"
     inkscape:cx="655.93405"
     inkscape:cy="397.19044"
     inkscape:window-width="2560"
     inkscape:window-height="1494"
     inkscape:window-x="-11"
     inkscape:window-y="-11"
     inkscape:window-maximized="1"
     inkscape:current-layer="svg2" />
  <path
     fill="#a9c9ce"
     d="m 0.735,0.255 c 42.172,0.711 86.924,0.094 129.268,0.072 l 248.324,-0.049 793.853,0.073 387.5,0.029 126.08,-0.022 c 16.56,0.018 50.19,1.136 64.9,-0.358 l -0.13,861.073 c -0.53,31.78 -0.09,64.94 -0.08,96.85 -0.16,35.8 -0.04,71.6 0.38,107.4 -52.2,1.04 -106.97,0.25 -159.41,0.28 l -301.01,0.02 -864.204,0.02 -283.715,-0.13 c -45.847,-0.01 -97.191,-1.28 -142.491,0.19 1.079,-7.93 0.657,-26.57 0.661,-35.16 L 0.652,967.093 0.646,749.845 Z m 11.979,1053.468 1239.206,-0.13 317.52,-0.04 c 55.49,-0.02 112.8,0.73 168.12,-0.21 1.86,-33.71 0.3,-82.46 0.29,-117.26 l 0.02,-229.077 -0.06,-694.142 -1725.523,0.059 -0.13,691.845 -0.015,231.675 -0.054,73.01 c -0.007,13.53 -0.519,31.17 0.626,44.27 z"
     id="path1" />
  <path
     fill="#a9c9ce"
     d="m 20.739,22.832 1706.851,0.121 c -0.74,50.706 -0.21,102.555 -0.21,153.336 l 0.03,287.932 0.11,578.462 -9.96,-0.37 -1696.804,0.49 c -0.643,-38.2 -0.061,-78.19 -0.065,-116.58 L 20.677,699.49 Z m 28.033,11.127 c -4.682,2.038 -7.418,2.869 -9.383,7.772 1.134,13.8 27.262,15.547 28.28,32.602 1.15,19.284 -16.445,20.84 -27.253,32.696 -10.003,37.461 31.875,20.717 26.845,54.937 -2.25,15.308 -38.933,19.476 -27.146,43.314 7.996,15.217 23.496,9.423 28.205,33.304 -6.952,24.882 -35.91,23.095 -28.742,47.453 2.456,8.349 23.46,15.094 25.897,24.465 1.232,3.249 2.013,6.931 2.741,10.141 -1.151,4.154 -2.62,9.823 -5.938,12.867 -10.014,9.187 -30.938,16.597 -21.852,35.217 6.259,12.829 31.868,13.646 26.752,37.599 -4.1,19.198 -38.459,20.025 -26.6,45.129 5.879,12.445 20.95,7.154 27.692,31.675 -0.945,4.342 -2.181,10.938 -5.138,13.927 -9.079,9.177 -34.692,19.325 -22.421,37.678 10.084,15.082 22.701,10.752 27.457,33.325 -6.684,23.153 -20.332,16.723 -28.269,33.668 -11.597,24.759 36.088,27.437 27.259,53.182 -4.736,19.408 -28.273,16.517 -28.653,37.207 -0.45,24.544 35.103,20.008 28.724,48.123 -4.054,17.866 -29.189,16.296 -28.988,36.122 -0.76,23.497 35.277,19.166 29.167,46.145 -4.193,18.509 -28.77,16.15 -29.085,36.816 -0.371,24.25 33.696,18.72 29.296,45.69 -2.149,17.81 -25.938,17.23 -28.885,34.26 -4.732,27.35 31.039,20.19 28.677,47.29 -1.779,20.42 -34.853,18.46 -26.799,38.05 8.352,9.01 21.191,8.43 29.192,-0.48 10.117,-11.09 12.598,-26.34 30.265,-27.07 23.983,-1 19.644,28.4 42.17,28.2 24.054,-0.21 18.034,-28.28 44.102,-28.02 25.378,0.25 18.471,25.26 40.303,28.01 5.573,0.42 13.421,-1.66 17.121,-5.88 10.185,-11.61 11.004,-21.43 28.886,-21.9 25.058,-0.66 18.658,25.22 40.59,27.74 25.157,2.33 20.636,-28.57 46.212,-27.99 23.361,0.52 19.233,26.21 39.664,28.04 24.979,2.25 20.458,-29.46 47.014,-27.85 24.232,1.47 17.481,23 38.038,27.44 1.915,0.37 7.992,0.03 10.313,-0.08 l 1.177,-0.65 c 14.55,-8.11 17.212,-31.12 41.988,-26.23 16.643,3.29 20.921,37.15 47.313,25.45 12.385,-5.48 17.598,-31.55 39.193,-25.34 18.875,5.42 12.526,16.74 28.933,26.68 8.921,0.46 15.638,1.48 23.013,-5.17 4.66,-4.2 7.668,-10.43 11.752,-14.56 10.624,-10.72 29.902,-10.39 38.251,3.07 4.795,7.73 10.262,16.47 19.559,17.32 26.702,2.77 21.233,-30.33 48.919,-27.81 21.685,1.97 18.545,26.04 37.945,27.77 25.785,2.3 19.065,-29.53 47.015,-27.75 5.58,0.33 10.77,2.92 14.39,7.17 7.39,8.52 9.8,19.59 22.61,20.53 5.57,0.64 12.96,-1.03 16.87,-5.19 11,-11.73 12.88,-23.34 32.15,-22.55 21.55,0.88 18.23,26.57 38.32,27.72 26.71,1.52 19.31,-29.16 48.19,-27.82 5.51,0.23 10.67,2.72 14.27,6.89 7.94,9.06 10.75,19.9 24.49,21.13 25.34,2.26 22.35,-30.29 49.08,-28.22 20.21,0.74 17.38,26.21 36.8,28.16 23.53,2.36 24.61,-29.57 47.31,-28.61 16.03,0.68 20.85,17.05 29.57,26.31 40.45,12.35 27.39,-33.28 63.85,-24.54 14.13,3.38 18.34,35.17 42.52,25.38 13.77,-5.14 17.98,-32.78 43.92,-25.57 16.02,4.44 18.03,35.76 44.2,25 16.35,-11.08 18.08,-31.62 43.49,-24.84 16.03,4.28 14.8,26.3 33.54,26.74 24.77,0.67 21.26,-34.96 50.96,-27.28 17.6,4.54 15.87,26.34 34.34,27.33 24.69,1.31 20.58,-34.21 49.99,-27.83 17,3.68 35.56,58.8 50.74,20.75 0.04,-0.24 0.08,-0.47 0.12,-0.71 l -0.37,-1.03 c -5.58,-15.37 -24.57,-11.28 -27.97,-30.65 -4.24,-24.13 35.92,-23.17 27.56,-48.14 -5.63,-16.84 -37.61,-19.38 -25.36,-45.43 5.54,-12.22 16.84,-9.5 25.55,-25.77 0.06,-4.3 0.25,-9.28 0.02,-13.52 l -0.67,-1.12 c -8.57,-14.335 -29.72,-15.382 -27.17,-37.618 1.68,-14.694 28.92,-19.626 28.52,-37.1 -0.07,-2.751 -0.34,-7.806 -1.93,-9.726 -13.72,-16.651 -21.06,-8.787 -27.41,-32.444 7.5,-28.316 23.68,-15.521 29.85,-41.217 -4.85,-25.788 -23.15,-16.058 -29.4,-42.854 0.67,-2.933 1.94,-9.138 3.74,-11.599 9.22,-12.589 33.44,-17.644 22.4,-39.481 -9.82,-12.909 -28.95,-15.101 -25.66,-35.938 3.39,-18.787 27.6,-16.016 28.09,-36.639 0.93,-23.231 -32.36,-21.325 -28.41,-47.23 2.6,-16.977 31.96,-20.118 28.48,-38.505 -4,-21.097 -23.11,-14.617 -28.86,-39.869 0.7,-2.997 2,-9.34 3.99,-11.77 9.64,-11.813 32.93,-16.845 22.72,-38.313 -4.84,-10.179 -30.37,-15.319 -25.64,-35.121 5.38,-22.499 22.82,-13.388 28.83,-37.675 -7.45,-24.303 -22.11,-11.35 -30.08,-39.771 1.06,-3.801 2.43,-9.367 4.99,-12.547 9.05,-11.239 31.64,-18.6 21.86,-38.135 -5.88,-11.764 -30.21,-15.275 -25.69,-35.645 4.33,-19.487 28.73,-16.208 28.08,-37.003 -0.08,-2.74 -1.13,-8.223 -2.74,-9.945 -13.95,-14.953 -20.29,-6.995 -26.25,-29.63 5.76,-21.485 28.29,-21.924 26.59,-34.899 -6.58,-9.654 -20.27,-10.461 -29.24,-3.879 -15.65,11.206 -16.48,34.497 -40.77,32.143 -5.7,-0.553 -14.09,-6.659 -16.46,-11.949 -5.32,-11.861 -21.43,-24.635 -34.05,-14.607 -11.48,9.118 -13.07,29.09 -35.16,26.298 -6.24,-0.532 -13.91,-5.388 -17.08,-11.081 -6.7,-12.006 -20.6,-26.306 -34.5,-14.32 -10.5,9.048 -12.45,27.452 -31.92,25.316 -23.15,-0.239 -20.46,-28.587 -40.66,-29.464 -22.22,-0.964 -17.55,30.137 -42.33,29.423 -25.44,-0.733 -19.71,-27.253 -42.21,-29.446 -4.42,-0.2 -12.3,1.806 -14.58,5.409 -11.38,18.191 -25.03,34.713 -46.49,17.095 -8.82,-7.244 -10.35,-22.238 -24.81,-22.32 -24.08,-0.136 -16.76,29.173 -42.82,29.491 -26,0.318 -20.4,-26.767 -42.47,-29.529 -4.34,-0.435 -11.69,1.919 -14.5,5.199 -9.96,11.786 -8.67,22.852 -27.05,24.375 -24.94,2.064 -24.23,-29.567 -45.48,-29.663 -22.63,-0.103 -16.51,28.077 -40.49,29.456 -27.22,1.565 -22.17,-27.925 -45.26,-29.389 -3.78,-0.155 -9.34,2.288 -12.63,4.105 -6.29,9.95 -10.17,21.365 -22.86,24.444 -31.97,7.922 -25.69,-32.396 -53.69,-28.342 -6.03,0.873 -11.88,7.16 -14.41,12.53 -7.03,14.957 -21.51,22.066 -36.58,12.663 -11.398,-7.115 -14.331,-29.51 -33.207,-25.132 -20.689,5.818 -14,30.088 -40.089,29.02 -25.613,-1.049 -20.618,-32.889 -45.409,-29.049 -17.305,4.041 -13.87,24.313 -32.294,28.594 -31.715,7.369 -25.826,-32.206 -53.193,-28.546 -15.319,2.049 -15.926,26.232 -32.281,28.569 -6.314,0.902 -14.291,1.179 -20.033,-3.111 -13.279,-12.605 -23.227,-40.59 -45.433,-18.188 -6.878,6.939 -7.916,20.838 -22.73,21.508 -5.267,0.636 -13.255,0.934 -17.598,-3.279 C 503.8,51.464 493.41,24.02 471.174,49.504 c -7.349,8.422 -7.318,16.204 -20.396,19.184 -30.357,6.916 -26.499,-31.904 -53.011,-28.927 -5.569,0.626 -10.09,5.227 -13.047,9.808 C 377.308,64.8 362.052,75.482 345.777,65.475 333.843,57.536 330.818,35.876 312.47,39.893 295.191,43.676 298.141,64.312 279.277,68.643 248.18,75.782 252.41,35.924 225.703,39.95 218.874,40.98 214.21,46.863 210.89,52.523 204.451,66.618 188.632,74.136 174.396,65.817 161.809,58.462 158.998,35.078 138.942,39.912 122.02,43.385 123.271,69.117 101.648,69.022 97.488,69.004 92.059,68.609 88.57,66.216 70.991,54.158 77.34,32.019 48.772,33.959 Z"
     id="path2" />
</svg>
