<?xml version="1.0" encoding="UTF-8" standalone="no"?>
<svg
   version="1.1"
   style="display:block"
   viewBox="0 0 1727.7161 942.9377"
   width="1295.7871"
   height="707.37598"
   preserveAspectRatio="none"
   id="svg138"
   sodipodi:docname="stamp.svg"
   inkscape:version="1.4.2 (f4327f4, 2025-05-13)"
   xmlns:inkscape="http://www.inkscape.org/namespaces/inkscape"
   xmlns:sodipodi="http://sodipodi.sourceforge.net/DTD/sodipodi-0.dtd"
   xmlns="http://www.w3.org/2000/svg"
   xmlns:svg="http://www.w3.org/2000/svg">
  <defs
     id="defs138" />
  <sodipodi:namedview
     id="namedview138"
     pagecolor="#ffffff"
     bordercolor="#000000"
     borderopacity="0.25"
     inkscape:showpageshadow="2"
     inkscape:pageopacity="0.0"
     inkscape:pagecheckerboard="0"
     inkscape:deskcolor="#d1d1d1"
     inkscape:zoom="1.1845703"
     inkscape:cx="642.42704"
     inkscape:cy="373.55317"
     inkscape:window-width="2560"
     inkscape:window-height="1494"
     inkscape:window-x="-11"
     inkscape:window-y="-11"
     inkscape:window-maximized="1"
     inkscape:current-layer="svg138" />
  <path
     fill="#72ddf6"
     d="m 119.83226,43.335265 c 8.394,-5.212 17.666,-8.754 26.697,-12.705 67.442,-29.5079999 142.981,-30.3859999 215.494,-30.4699999 l 97.085,-0.077 328.639,0.013 431.16804,0.046 135.29,-0.097 c 51.32,-0.028 104.11,-1.018 154.78,7.947 9.92,1.755 41.83,9.0749999 49.5,15.3459999 3.14,1.346 9.51,3.26 11.53,4.258 3.47,4.019 4.1,4.648 5.84,9.659 1.49,3.101 0.53,2.182 3.44,3.656 1.43,-0.158 3.5,-0.314 4.86,-0.584 l -1.04,3.648 c -1.47,2.088 -2.36,2.267 -4.63,3.08 -0.08,3.082 0.83,2.454 0.75,5.541 -3.89,-1.341 -8.87,-4.013 -12.67,-5.922 -70.81,-31.101 -141.98,-29.63 -217.37,-29.639 l -135.67,0.014 -429.95704,-0.083 -328.366,-0.021 c -48.655,0.007 -97.904,-0.725 -146.457,1.28 -23.911,0.988 -46.855,2.061 -70.447,6.527 l -3.637,0.402 c -34.142,6.02 -77.185,17.144 -107.209,35.215 l -2.027,-0.593 c -0.643,-2.679 0.172,-3.536 1.122,-6.471 l 0.1,1.377 c 0.386,-0.425 0.432,-2.639 0.506,-3.438 -2.341,-4.147 -2.948,-6.098 -7.321,-7.909 z"
     id="path1" />
  <path
     fill="#79e0f5"
     d="m 1566.5653,46.674265 c -1.21,-3.723 -0.61,-4.056 -3.39,-5.96 l 0.84,-0.804 c 3.9,-0.683 3.4,-1.239 6.35,0.103 0.26,1.875 0.22,2.813 1.27,4.41 4.83,0.093 6.48,-2.267 11.48,-0.448 -1.47,2.088 -2.36,2.267 -4.63,3.08 -0.08,3.082 0.83,2.454 0.75,5.541 -3.89,-1.341 -8.87,-4.013 -12.67,-5.922 z"
     id="path2" />
  <path
     fill="#85e4f5"
     d="m 1558.4853,23.338265 c 3.14,1.346 9.51,3.26 11.53,4.258 3.47,4.019 4.1,4.648 5.84,9.659 -4.92,-1.466 -4.36,-4.393 -8.4,-4.983 l -0.81,3.02 -1.52,0.695 c -2.22,-0.598 -2.63,-0.483 -4.23,-2.146 1.43,-1.52 1.49,-1.552 2.5,-3.367 -2.35,-2.395 -1.25,-1.692 -5.36,-2.008 l -0.72,-1.188 z"
     id="path3" />
  <path
     fill="#79e0f5"
     d="m 234.66126,25.154265 c -4.11,-0.07 -3.908,0.564 -7.096,-1.489 l -0.071,-1.813 c 3.031,-2.125 1.66,-1.519 5.786,-1.894 3.844,1.732 2.475,0.672 5.018,4.794 z"
     id="path4" />
  <path
     fill="#85e4f5"
     d="m 1246.8753,5.9392651 c 1.95,-0.44 3.71,0.663 5.67,1.491 1.96,3.0269999 1.82,1.901 1.82,5.0759999 l -1.38,0.855 -2.43,-2.136 c -2.57,1.701 -3.28,2.266 -6.12,3.339 -0.54,-1.7 1.6,-5.7469999 2.44,-8.6249999 z"
     id="path5" />
  <path
     fill="#72ddf6"
     d="m 149.05726,897.88527 c 7.494,2.66 20.664,6.79 26.392,11.61 0.869,0.73 1.805,0.67 2.865,0.84 22.704,3.81 42.912,11.36 66.373,12.06 15.696,2.46 61.341,1.46 79.278,1.45 l 155.882,-0.14 579.80804,0.12 h 141.92 c 8.35,0.05 41.1,-0.72 47.13,0.66 8.61,-1.19 66.6,-1.96 74.32,-0.5 17.72,-0.5 87.86,-1.91 101.25,2.47 -0.5,2.34 -1.02,3.48 -0.11,5.68 1.74,0.89 3.36,1.71 5.05,2.71 -3.66,0.62 -6.78,0.87 -9.92,2.89 l -0.66,1.85 3.12,1.93 c -30.2,2.07 -80.09,0.82 -111.77,0.61 -17.27,0.79 -40.03,0.03 -57.67,-0.16 l -635.60404,0.05 h -240.504 c -39.468,0.09 -79.308,1.74 -118.732,0.4 -21.536,-0.74 -43.628,-5.96 -65.026,-7.88 -11.304,-4.11 -35,-7.29 -44.084,-13.17 l 0.223,-0.82 c -1.415,-3.19 -4.763,-2.04 -7.401,-6.07 l 1.036,-1.32 2.138,0.2 1.077,-1.01 c -0.991,-4.97 -0.792,-5.84 -0.081,-10.76 1.306,-1.18 2.477,-2.43 3.7,-3.7 z"
     id="path6" />
  <path
     fill="#79e0f5"
     d="m 149.05726,897.88527 c 7.494,2.66 20.664,6.79 26.392,11.61 0.869,0.73 1.805,0.67 2.865,0.84 22.704,3.81 42.912,11.36 66.373,12.06 -6.694,1.75 -15.706,3.12 -21.867,-0.33 l -1.088,0.85 0.518,1.46 1.903,0.4 c 0.407,4.4 1.798,5.45 4.597,8.53 l -0.068,1.79 -2.241,1.52 -0.546,-0.25 c -8.673,-3.93 -11.553,0.23 -17.626,-2.35 l -0.325,-1.04 1.702,-1.39 c -3.368,-0.78 -11.635,2.25 -17.197,2.95 -11.304,-4.11 -35,-7.29 -44.084,-13.17 l 0.223,-0.82 c -1.415,-3.19 -4.763,-2.04 -7.401,-6.07 l 1.036,-1.32 2.138,0.2 1.077,-1.01 c -0.991,-4.97 -0.792,-5.84 -0.081,-10.76 1.306,-1.18 2.477,-2.43 3.7,-3.7 z"
     id="path7" />
  <path
     fill="#79e0f5"
     d="m 1252.4653,941.18527 -5.29,-0.79 c -2.13,-3.15 2.48,-2.72 1.66,-7.36 l 1.88,-1.22 0.03,0.01 c -3.79,1.88 -2.97,2.18 -6.56,1.85 l -1.26,-1.7 c 3.18,-4.02 0.35,0.93 4.18,-1.97 l -2.99,-2.27 1.26,-0.83 c 5.36,2.36 5.02,2.29 9.31,-1.21 l -0.78,3.03 1.47,0.4 0.31,-0.26 c 7.79,1.98 9.66,1.77 13.84,8.54 l 0.22,2.08 -1.35,0.47 c -2.82,-1.49 -3.35,-1.79 -5.66,-3.99 -1.91,1.06 -2.49,1.21 -4.65,0.86 l 1.01,3.07 -1.11,1.39 c -1.83,0.02 -3.72,0.11 -5.52,-0.1 z"
     id="path8" />
  <path
     fill="#85e4f5"
     d="m 435.48826,925.45527 c 3.929,-0.09 9.302,-0.54 12.85,0.56 l 0.334,1.68 c -3.553,0.03 -8.244,0.42 -11.824,0.67 z"
     id="path9" />
  <path
     fill="#79e0f5"
     d="m 119.83226,43.335265 c 4.373,1.811 4.98,3.762 7.321,7.909 -0.074,0.799 -0.12,3.013 -0.506,3.438 l -0.1,-1.377 c -0.95,2.935 -1.765,3.792 -1.122,6.471 l 2.027,0.593 c -29.361997,20.289 -47.181997,33.415 -68.584997,63.626005 -5.097,8.254 -9.835,16.805 -15.127,24.911 -19.735,47.614 -22.007,66.872 -22.122,119.543 l 0.018,81.164 c 0.001,10.586 0.601,28.797 -0.033,38.848 l -0.228,7.357 -1.32,4.481 c -4.032,1.299 -4.528,1.774 -4.944,5.752 l -1.023,0.675 c -3.13,-1.367 -4.3559997,-3.231 -6.6269997,-5.803 l 0.249,-1.547 c -2.414,0.286 -3.089,0.551 -5.375,-0.372 -1.309,-3.71 1.333,-1.958 0.651,-5.266 l -2.47600001,-0.243 c -0.874,-11.558 -0.371,-32.506 -0.322,-44.457 l 0.166,-82.058 c 0.162,-19.427 0.521,-37.775 2.97800001,-57.241 0.353,-3.356 2.539,-6.779 3.151,-9.933 C 19.504263,132.75927 58.851263,75.398265 119.83226,43.335265 Z"
     id="path10" />
  <path
     fill="#85e4f5"
     d="m 0.18826329,349.03827 0.585,0.08 c 2.63700001,0.336 2.88500001,0.282 5.49400001,-0.105 l 0.974,2.066 c -1.742,3.77 -2.053,2.821 -1.05,5.725 l 4.3979997,2.808 c 0.414,2.311 -3.8649997,11.165 -5.4469997,12.904 l 0.942,1.08 c 1.37,-0.801 1.552,-0.89 2.718,-1.954 l 1.5599997,1.168 c -0.5359997,1.776 -0.7699997,1.698 -2.2389997,2.922 3.1869997,4.058 10.8959997,-0.162 13.4799997,12.729 l -0.228,7.357 -1.32,4.481 c -4.032,1.299 -4.528,1.774 -4.944,5.752 l -1.023,0.675 c -3.13,-1.367 -4.3559997,-3.231 -6.6269997,-5.803 l 0.249,-1.547 c -2.414,0.286 -3.089,0.551 -5.375,-0.372 -1.309,-3.71 1.333,-1.958 0.651,-5.266 l -2.47600001,-0.243 c -0.874,-11.558 -0.371,-32.506 -0.322,-44.457 z"
     id="path11" />
  <path
     fill="#72ddf6"
     d="m 43.740263,148.90627 c -0.232,-6.656 4.885,-10.692 5.974,-16.35 0.326,-1.696 -4.037,-1.992 -3.827,-7.743 4.285,-5.001 8.208,-4.092 12.98,-0.818 -5.097,8.254 -9.835,16.805 -15.127,24.911 z"
     id="path12" />
  <path
     fill="#85e4f5"
     d="m 33.257263,158.04627 c 1.717,0.86 0.923,0.372 2.091,2.529 -1.441,2.594 -10.033,6.851 -13.143,8.609 l -0.249,-1.462 c 1.876,-1.96 5.632,-6.332 7.371,-8.438 -1.222,1.479 3.423,-0.924 3.93,-1.238 z"
     id="path13" />
  <path
     fill="#79e0f5"
     d="m 0.51026329,393.49527 2.47600001,0.243 c 0.682,3.308 -1.96,1.556 -0.651,5.266 2.286,0.923 2.961,0.658 5.375,0.372 l -0.249,1.547 c 2.271,2.572 3.4969997,4.436 6.6269997,5.803 l 1.023,-0.675 c 0.416,-3.978 0.912,-4.453 4.944,-5.752 l 1.32,-4.481 c 1.46,55.064 0.22,116.152 0.229,171.666 l 0.156,56.317 c 0.046,6.588 0.643,22.01 0.033,27.578 -0.138,7.104 -0.153,14.209 -0.044,21.313 -0.204,52.848 2.958,65.959 17.433,116.172 l -3.625,-3.011 c -3.449,2.684 0.541,1.613 -2.914,3.501 l -3.235,-2.027 -2.47,1.156 c -0.792,2.551 -0.939,2.739 -0.683,5.339 -1.305,-0.493 -2.615,-0.861 -3.971,-1.191 -2.647,-2.632 -3.315,-3.132 -4.709,-6.553 l -0.121,3.84 c -1.153,-5.767 -3.64,-13.461 -5.332,-19.262 -9.3909997,-23.422 -11.47299971,-77.132 -11.79599971,-104.059 -0.07,-5.845 -0.391,-12.596 -0.18,-18.495 0.096,-2.695 5.00800001,-5.249 5.58500001,-7.691 -2.138,-0.229 -1.146,-0.169 -3.56,1.044 l -1.33200001,-0.834 c -0.566,-10.617 -1.15,-50.869 0.76000001,-59.768 l 1.11,-0.502 c 3.205,3.494 4.668,6.948 3.894,11.709 l 1.11,0.996 c 3.7769997,-2.233 5.6599997,-2.349 7.3169997,-3.474 -0.593,-2.601 -1.46,-7.817 -3.213,-9.433 -1.735,1.759 -1.768,2.281 -2.6889997,4.681 l -0.279,0.742 c -1.165,-2.65 1.062,-3 0.465,-6.9 -2.544,0.444 -3.99,0.594 -6.57,0.725 l -1.563,-1.782 c -1.16300001,-3.731 -1.46800001,-48.339 1.435,-54.048 1.282,-2.521 4.649,-1.564 9.0649997,-3.277 1.964,-2.896 1.364,-1.923 1.58,-5.891 -1.202,-1.398 -1.892,-1.927 -3.4909997,-2.845 l 0.5789997,-4.691 -0.8449997,-0.781 -5.493,3.809 -1.75,-0.548 c -2.26600001,-4.856 -2.59200001,-27.542 -1.31000001,-33.017 9.11199971,-7.248 -0.446,-5.053 -0.569,-14.831 -0.287,-22.682 -0.266,-45.32 0.128,-68 z"
     id="path14" />
  <path
     fill="#72ddf6"
     d="m 12.122263,770.65627 c 2.867,0.807 3.061,0.84 5.501,2.486 3.789,-0.757 5.024,-1.688 8.351,-3.545 l 0.378,0.662 c -2.24,2.931 -2.958,4.162 -5.979,6.39 0.006,1.81 -0.094,2.613 0.359,4.374 l 2.51,1.149 0.411,1.389 c -2.481,2.032 -2.8,1.945 -6.078,2.517 l -0.121,3.84 c -1.153,-5.767 -3.64,-13.461 -5.332,-19.262 z"
     id="path15" />
  <path
     fill="#85e4f5"
     d="m 20.732263,781.02327 c 4.572,-1.531 8.454,-2.475 10.811,3.056 -0.557,2.607 0.081,1.527 -2.135,3.248 l -2.47,1.156 c -0.792,2.551 -0.939,2.739 -0.683,5.339 -1.305,-0.493 -2.615,-0.861 -3.971,-1.191 -2.647,-2.632 -3.315,-3.132 -4.709,-6.553 3.278,-0.572 3.597,-0.485 6.078,-2.517 l -0.411,-1.389 z"
     id="path16" />
  <path
     fill="#85e4f5"
     d="m 21.749263,672.69227 -1.472,1.368 -1.038,-0.528 c -1.434,-6.809 -5.251,-11.804 -3.39,-18.867 2.512,-3.076 1.245,-2.086 5.944,-3.286 -0.138,7.104 -0.153,14.209 -0.044,21.313 z"
     id="path17" />
  <path
     fill="#72ddf6"
     d="m 5.2232633,411.50827 1.559,-0.335 -0.196,1.576 -0.616,-1.359 0.324,2.076 0.743,0.12 c 3.4059997,-3.427 2.938,-3.695 7.4709997,-3.312 5.499,5.393 3.566,9.775 0.402,15.296 l -0.187,2.077 -2.722,-1.279 -1.19,2.775 c -5.4119997,-2.646 -3.9509997,-13.136 -7.0309997,-15.889 z"
     id="path18" />
  <path
     fill="#85e4f5"
     d="m 9.2082633,435.45727 c 1.8789997,1.273 3.7399997,2.517 5.5749997,3.856 l 0.056,2.317 c -2.303,3.527 -2.911,4.728 -3.762,8.924 -4.4599997,-4.844 -2.7989997,-0.829 -4.9689997,-6.908 0.387,-4.271 0.55,-4.745 3.1,-8.189 z"
     id="path19" />
  <path
     fill="#85e4f5"
     d="m 1707.7553,531.32827 c -0.43,-9.202 -2.68,-31.905 2.56,-38.387 l 2.04,-0.09 c 1.91,1.855 2.67,2.586 4.26,4.704 2.8,-0.225 3.24,-0.515 5.89,-1.572 2.22,0.969 1.73,0.247 2.55,2.38 3.42,8.836 -0.04,12.016 -6.14,16.922 -1.06,3.846 1.29,8.038 2.82,12.385 l 1.19,0.558 1.92,-0.726 c 1.63,6.132 0.95,23.187 0.56,30.38 -0.21,3.784 -2.22,14.666 -2.8,19.058 1.07,1.083 2.14,2.166 3.21,3.249 0.28,8.805 0.39,18.417 0.41,27.235 0,1.034 -1.67,3.831 -1.94,4.304 -0.45,0.755 -0.9,1.503 -1.37,2.244 8.35,15.245 2.81,60.207 3.91,78.858 0.01,0.234 -0.81,1.599 -0.97,1.823 -3.28,5.037 -0.02,16.885 -0.39,25.784 -0.82,20.057 -13.38,79.041 -25.33,93.645 -2.1,3.613 -4.19,7.233 -6.25,10.863 -11.49,20.63 -26.3,35.68 -43.35,51.84 -1.77,-0.7 -2.45,-0.93 -4.07,-1.95 l -1.13,-0.72 c -5.79,0.45 -3.03,3.84 -7.51,4.95 -3.6,-3.62 -5.6,-4.73 -4.56,-9.96 2.62,-2.84 5.33,-3.58 8.93,-5.08 l 0.32,-1.69 c -1.78,-2.44 -2.1,-2.69 -2.94,-5.52 68.97,-61.352 67.99,-126.51 67.9,-212.125 l 0.01,-97.355 c -0.29,-5.193 0.06,-10.777 0.27,-16.007 z"
     id="path20" />
  <path
     fill="#79e0f5"
     d="m 1693.8853,824.94527 c -2.53,-6.56 -3.44,-7.71 -7.47,-13.267 l 0.19,-1.17 c 6.02,2.803 9.45,1.436 13.53,3.574 -2.1,3.613 -4.19,7.233 -6.25,10.863 z"
     id="path21" />
  <path
     fill="#79e0f5"
     d="m 1707.7553,531.32827 c 3.3,3.222 5.11,4.274 5.93,8.416 -1.32,3.253 -3.27,5.57 -6.2,7.591 -0.29,-5.193 0.06,-10.777 0.27,-16.007 z"
     id="path22" />
  <path
     fill="#79e0f5"
     d="m 1639.5753,856.81527 c 0.84,2.83 1.16,3.08 2.94,5.52 l -0.32,1.69 c -3.6,1.5 -6.31,2.24 -8.93,5.08 -1.04,5.23 0.96,6.34 4.56,9.96 4.48,-1.11 1.72,-4.5 7.51,-4.95 l 1.13,0.72 c 1.62,1.02 2.3,1.25 4.07,1.95 -5.91,4.8 -18.02,15.03 -24.16,18.76 l -4.02,3.01 c -22.77,14.12 -47.47,24.84 -73.33,31.83 -30.11,8.81 -81.3,12.49 -113.11,11.24 l -0.37,-1.72 c -1.83,-2.7 -2.12,-4.4 -4.62,-6.48 l -1.71,1.42 c -1.69,-1 -3.31,-1.82 -5.05,-2.71 -0.91,-2.2 -0.39,-3.34 0.11,-5.68 4.76,-4.07 20.32,-2.74 27.52,-2.66 4.62,-0.3 7.17,-0.35 11.79,-0.08 1.61,-0.77 24.14,-2.88 28.7,-3.59 54.67,-7.18 106.91,-24.14 147.29,-63.31 z"
     id="path23" />
  <path
     fill="#72ddf6"
     d="m 1511.5053,931.97527 c 2.76,1.91 8.26,2.26 11.21,0.69 l 0.13,-1.53 -2.87,-2.63 0.85,-0.86 c 3.33,0.98 6.67,1.94 10.01,2.88 l 2.74,-4 1.07,0.52 0.31,2.39 1.59,-0.63 c 1.56,-3.33 2.09,-4.99 4.93,-7.47 5.14,0.04 0.12,4.89 7.55,9.05 -30.11,8.81 -81.3,12.49 -113.11,11.24 l -0.37,-1.72 c -1.83,-2.7 -2.12,-4.4 -4.62,-6.48 l -1.71,1.42 c -1.69,-1 -3.31,-1.82 -5.05,-2.71 -0.91,-2.2 -0.39,-3.34 0.11,-5.68 4.76,-4.07 20.32,-2.74 27.52,-2.66 4.62,-0.3 7.17,-0.35 11.79,-0.08 l 2.46,0.74 0.19,1.17 c 3.59,21.07 32.36,11.71 45.27,6.35 z"
     id="path24" />
  <path
     fill="#79e0f5"
     d="m 1424.2753,926.45527 c 4.76,-4.07 20.32,-2.74 27.52,-2.66 6.91,5.62 5.38,0.36 9.6,3.7 l -0.65,1.18 -7.5,0.76 c -1.61,-1.42 -0.97,-0.55 -1.63,-2.89 l -0.97,0.64 1.38,1.96 c -1.42,1.27 -1.45,1.14 -3.31,1.7 l 0.16,4.65 -1.43,1.04 -1.76,-0.61 -0.56,-3.9 c -2.04,1.82 -1.51,2.99 -1.87,6.38 -1.1,-1.66 -2.53,-3 -3.94,-4.39 -2.5,0.52 -1.34,-0.06 -3.21,2.46 0.24,2.53 0.54,1.44 -0.56,3.43 -1.83,-2.7 -2.12,-4.4 -4.62,-6.48 l -1.71,1.42 c -1.69,-1 -3.31,-1.82 -5.05,-2.71 -0.91,-2.2 -0.39,-3.34 0.11,-5.68 z"
     id="path25" />
  <path
     fill="#79e0f5"
     d="m 1674.1553,99.770265 c 27.89,40.549005 47.34,76.901005 49.73,127.006005 0.53,11.047 4.33,28.002 -0.08,38.156 l -1.34,-0.073 -2.62,-3.029 c -2.87,0.889 -4.77,2.818 -6.55,5.271 l -7.04,2.145 c 0.44,-20.45 -1.52,-47.966 -2.9,-69.073 -0.11,-1.733 -6.25,-11.029 -7.35,-13.765 -4.09,-10.216 -6.57,-21.177 -11.62,-31.003 -7.43,-13.827 -16.16,-28.84 -25.66,-41.308 l 2.7,-0.93 c 1.35,-1.553 2.07,-2.26 3.58,-3.668 l 0.65,1.281 c -1.1,2.836 -1.75,3.844 -1.67,6.805 l 1.48,0.542 1.37,-2.602 c 2.66,-0.906 4.32,-1.124 6.1,-3.132 -0.49,-3.13 -0.94,-4.317 -2.01,-7.313 1.17,-4.102 0.25,-2.782 3.23,-5.310005 z"
     id="path26" />
  <path
     fill="#85e4f5"
     d="m 1570.0153,27.596265 c 10.75,4.322 34.69,13.277 43.2,19.508 10.31,5.817 19.64,14.031 28.53,21.795 9.98,6.028 18.22,15.385 26.33,23.78 3.35,2.855 3.77,3.34 6.08,7.091 -2.98,2.528005 -2.06,1.208005 -3.23,5.310005 1.07,2.996 1.52,4.183 2.01,7.313 -1.78,2.008 -3.44,2.226 -6.1,3.132 l -1.37,2.602 -1.48,-0.542 c -0.08,-2.961 0.57,-3.969 1.67,-6.805 l -0.65,-1.281 c -1.51,1.408 -2.23,2.115 -3.58,3.668 l -2.7,0.93 c -11.04,-14.548005 -28.1,-28.123005 -42.64,-39.099005 -5.68,-4.055 -10.94,-7.515 -16.79,-11.274 -6.89,-4.196 -12.91,-7.407 -20.06,-11.128 0.08,-3.087 -0.83,-2.459 -0.75,-5.541 2.27,-0.813 3.16,-0.992 4.63,-3.08 l 1.04,-3.648 c -1.36,0.27 -3.43,0.426 -4.86,0.584 -2.91,-1.474 -1.95,-0.555 -3.44,-3.656 -1.74,-5.011 -2.37,-5.64 -5.84,-9.659 z"
     id="path27" />
  <path
     fill="#79e0f5"
     d="m 1570.0153,27.596265 c 10.75,4.322 34.69,13.277 43.2,19.508 -6.42,-0.895 -6.81,-3.012 -12.21,1.594 l -2.3,-0.258 1.03,-4.478 -0.9,-1.302 -2.57,-0.357 c -2.63,1.222 -3.64,2.083 -6.28,1.49 -2.8,-3.029 -1.97,-2.371 -2.61,-7.156 -1.7,-0.856 -2.65,-0.405 -4.54,0 l 1.7,2.119 -0.38,1.571 c -1.36,0.27 -3.43,0.426 -4.86,0.584 -2.91,-1.474 -1.95,-0.555 -3.44,-3.656 -1.74,-5.011 -2.37,-5.64 -5.84,-9.659 z"
     id="path28" />
  <path
     fill="#79e0f5"
     d="m 1641.7453,68.899265 c 9.98,6.028 18.22,15.385 26.33,23.78 -1.09,-0.215 -3.23,-0.557 -4,-1.204 -3.53,-2.96 -7.68,-1.774 -13.66,-2.836 l 0.36,-2.228 c 1.22,-1.019 1.17,-1.062 2,-2.434 l -2.92,-1.939 1.89,-2.504 -0.5,-1.488 v 0.054 c -0.41,0.201 -11.36,7.034 -11.42,7.093 l -1.52,-1.749 0.42,-3.34 -0.6,0.144 -0.47,1.696 0.14,-1.588 c 2.23,-0.219 3.19,-0.123 5.11,-1.334 l 0.35,-2.348 c -2.02,-3.157 -1.79,-3.972 -1.51,-7.775 z"
     id="path29" />
  <path
     fill="#79e0f5"
     d="m 1599.2953,63.724265 c 4.97,-1.023 11.23,-1.711 15.9,0.542 2.22,2.889 2.02,3.51 2.38,7.314 l -1.49,3.418 c -5.68,-4.055 -10.94,-7.515 -16.79,-11.274 z"
     id="path30" />
  <path
     fill="#79e0f5"
     d="m 1617.5053,60.165265 c 2.96,-0.422 3.36,-0.478 6.32,-0.188 3.22,2.856 2.79,5.65 5.1,9.618 -4.18,-0.741 -5.82,-0.639 -8.46,-3.398 -0.54,-3.024 -0.87,-3.776 -2.96,-6.032 z"
     id="path31" />
  <path
     fill="#79e0f5"
     d="m 1713.2953,267.10127 0.55,-0.193 c 2.48,-0.897 3.13,-1.304 5.34,-2.731 l 1.27,1.85 c -1.69,5.931 -2.08,5.162 1.06,10.711 6.62,11.715 3.54,28.25 4.39,41.038 0.57,6.105 1.9,72.009 0.61,75.968 -5.44,-3.991 -15.12,-0.701 -19.24,4.556 0.6,-23.883 -0.03,-50.709 -0.06,-74.827 l -0.96,-54.227 z"
     id="path32" />
  <path
     fill="#85e4f5"
     d="m 1713.2953,267.10127 0.55,-0.193 c 2.48,-0.897 3.13,-1.304 5.34,-2.731 l 1.27,1.85 c -1.69,5.931 -2.08,5.162 1.06,10.711 6.62,11.715 3.54,28.25 4.39,41.038 -0.83,1.473 -3.13,5.489 -3.85,6.802 -0.58,1.064 1.62,2.758 -0.72,4.846 l -1.47,-0.929 c -0.22,-3.279 -0.23,-4.264 0.2,-7.515 l -0.95,-0.485 c -1.36,3.029 -2.05,4.448 -2.88,7.701 l -2.75,-3.344 c -1.66,1.603 -1.65,1.806 -2.72,3.757 -1.22,-1.717 -2.41,-3.364 -3.55,-5.136 l -0.96,-54.227 z"
     id="path33" />
  <path
     fill="#72ddf6"
     d="m 1713.1853,293.54127 c 1.49,1.304 2.19,2.729 3.29,4.429 l 1.86,0.351 3,-3.519 1.61,0.808 c 0.9,7.553 -3.98,9.23 -1.96,16.752 -1.5,4.278 -0.51,-0.355 -5.39,3.801 l -0.4,2.424 -1.61,-1.607 c -0.3,-2.258 -1.13,-5.685 -0.15,-7.527 1.11,0.837 2.01,1.734 2.91,2.792 l 1.91,-1.36 c 0.1,-5.33 -2.14,-0.533 -3.07,-5.183 -1.05,-5.22 -0.24,-6.548 -2,-12.161 z"
     id="path34" />
  <path
     fill="#79e0f5"
     d="m 29.408263,787.32727 3.235,2.027 c 3.455,-1.888 -0.535,-0.817 2.914,-3.501 l 3.625,3.011 0.526,1.378 c 7.719,15.403 14.712,29.203 25.185,42.983 5.189,6.82 11.009,12.78 16.03,19.37 -0.892,3.26 -1.019,4.48 -0.684,7.83 1.965,2.85 2.703,3.32 5.385,5.61 l -0.743,1.42 c -2.134,-0.1 -2.043,-0.2 -3.969,-1.21 -3.189,2.87 -8.189,2.86 -12.991,2.97 -2.64,-0.71 -6.258,-5.55 -8.104,-7.73 -17.575,-20.79 -32.367,-46.4 -42.363,-71.567 l 0.121,-3.84 c 1.394,3.421 2.062,3.921 4.709,6.553 1.356,0.33 2.666,0.698 3.971,1.191 -0.256,-2.6 -0.109,-2.788 0.683,-5.339 z"
     id="path35" />
  <path
     fill="#72ddf6"
     d="m 29.408263,787.32727 3.235,2.027 c 3.455,-1.888 -0.535,-0.817 2.914,-3.501 l 3.625,3.011 0.526,1.378 c -0.439,4.585 -0.682,5.09 -3.037,8.955 -3.447,1.699 -4.244,1.024 -8.474,-0.29 l -2.773,1.673 -1.086,-0.583 c 0.486,-1.642 1.725,-4.869 1.917,-6.175 -0.256,-2.6 -0.109,-2.788 0.683,-5.339 z"
     id="path36" />
  <path
     fill="#72ddf6"
     d="m 80.923263,852.59527 c 20.167997,18.61 43.165997,33.9 68.133997,45.29 -1.223,1.27 -2.394,2.52 -3.7,3.7 -0.711,4.92 -0.91,5.79 0.081,10.76 l -1.077,1.01 -2.138,-0.2 -1.036,1.32 c 2.638,4.03 5.986,2.88 7.401,6.07 l -0.223,0.82 c -8.452,-3.97 -16.907,-7.08 -25.474,-11.32 l -6.601,-3.76 -7.669,-4.17 -0.954,-0.21 c -13.406997,-7.6 -29.800997,-20.93 -39.745997,-32.69 4.802,-0.11 9.802,-0.1 12.991,-2.97 1.926,1.01 1.835,1.11 3.969,1.21 l 0.743,-1.42 c -2.682,-2.29 -3.42,-2.76 -5.385,-5.61 -0.335,-3.35 -0.208,-4.57 0.684,-7.83 z"
     id="path37" />
  <path
     fill="#79e0f5"
     d="m 107.66726,901.90527 c 0.061,-4.31 0.264,-6.27 -0.947,-10.52 -4.601,-3.6 -3.968,0.23 -7.935997,-2.7 0.68,-2.27 0.893,-2.7 1.961997,-4.85 l -0.412,-0.75 c -7.138997,-0.46 -16.026997,-0.24 -21.774997,-4.4 -1.346,-3.13 -1.288,-1.7 0.017,-5.22 l 1.522,-1 c 1.605,2.58 1.694,3.18 2.583,6.14 l 3.182,-3.62 c 2.058,-0.11 1.957,-0.11 3.944,0.45 1.729,-3.27 -1.07,-4.98 1.326,-9.31 2.762,1.17 1.691,0.3 3.439,2.57 -0.615,1.24 -1.162,2.28 -1.842,3.48 3.099,1.55 2.878,0.33 6.243,0.27 0.853,2.42 1.706997,4.84 2.559997,7.26 6.266,1.93 14.121,-1.39 17.982,6.21 0.067,0.29 0.135,0.57 0.203,0.86 -4.621,1.76 -4.067,0.74 -6.144,4.27 -0.025,2.66 -0.124,3.9 0.385,6.49 l 3.169,0.65 c -2.209,2.95 -4.426,2.11 -8.507,3.93 z"
     id="path38" />
  <path
     fill="#79e0f5"
     d="m 116.29026,906.28527 c 2.802,-5.69 7.453,-13.04 14.495,-10.47 4.285,7.35 -2.142,11.34 -7.894,14.23 z"
     id="path39" />
  <path
     fill="#85e4f5"
     d="m 1707.2753,398.30027 c 4.12,-5.257 13.8,-8.547 19.24,-4.556 0.14,6.883 1.02,35.599 0.18,40.737 -1.95,1.974 -2.19,1.993 -4.79,3.129 l -0.19,1.585 c 1.79,1.981 1.86,1.867 4.34,3.042 5.27,8.984 -3.77,19.07 -2.83,22.555 l 1.93,-2.633 c 1.89,2.104 1.39,5.817 1.46,8.193 0.52,17.885 -7.07,12.519 -17.51,22.059 -0.46,0.522 -0.91,1.044 -1.36,1.566 -0.44,-31.3 0.52,-64.884 -0.47,-95.677 z"
     id="path40" />
  <path
     fill="#79e0f5"
     d="m 50.100263,495.85327 2.664,0.352 c 3.221,2.645 2.976,8.478 2.653,12.402 -0.774,9.384 2.221,69.442 -1.823,74.402 -3.357,0.937 -3.889,0.162 -7.589,-0.836 -0.762,-2.568 0.027,-30.338 0.067,-35.054 0.126,-10.938 -0.028,-21.878 -0.461,-32.808 -0.383,-10.722 -3.62,-11.9 4.489,-18.458 z"
     id="path41" />
  <path
     fill="#79e0f5"
     d="m 1672.7253,604.07327 c 3.14,0.05 6.51,-0.262 8.72,1.465 3.29,9.355 1.41,50.225 0.75,61.782 -2.74,1.643 -4.39,2.323 -7.41,1.643 -3.42,-4.779 -2.99,-56.054 -2.06,-64.89 z"
     id="path42" />
  <path
     fill="#72ddf6"
     d="m 1489.3653,47.800265 c 3.12,0.871 8.53,1.295 12.22,2.022 9.83,2.011 19.61,4.246 29.34,6.702 5.76,1.485 12.98,3.516 16.12,8.859 0.44,3.734 0.81,2.683 -0.48,5.811 l -2.45,0.718 c -12.26,-2.335 -20.17,-5.167 -31.89,-8.835 -6.28,-1.963 -14.37,-3.055 -20.69,-4.966 -4.61,-1.394 -4.08,-1.047 -5.86,-4.382 0.91,-3.907 0.38,-2.49 3.69,-5.929 z"
     id="path43" />
  <path
     fill="#85e4f5"
     d="m 46.779263,283.48027 c -0.201,-6.245 -2.291,-16.15 5.233,-17.322 8.864,6.982 1.936,46.397 3.394,57.545 0.614,4.698 -0.696,7.043 -3.583,10.388 l -1.618,-0.387 -0.6,1.649 -2.011,-1.014 c -2.991,-5.165 -1.01,-42.041 -0.815,-50.859 z"
     id="path44" />
  <path
     fill="#79e0f5"
     d="m 46.779263,283.48027 c -0.201,-6.245 -2.291,-16.15 5.233,-17.322 8.864,6.982 1.936,46.397 3.394,57.545 0.614,4.698 -0.696,7.043 -3.583,10.388 0.016,-6.227 2.735,-22.997 1.368,-27.848 -2.333,-8.279 0.619,-9.326 -0.514,-17.279 l -2.268,-1.53 c 1.635,-4.202 3.202,-8.43 4.701,-12.682 l -0.625,-0.995 -2.336,1.92 -0.741,-2.007 -1.181,-0.186 c -3.324,4.51 1.066,2.335 -3.448,9.996 z"
     id="path45" />
  <path
     fill="#72ddf6"
     d="m 60.032263,751.98027 c 1.457,0.315 1.923,0.752 3.301,1.516 4.824,9.406 7.017,19.606 12.009,29.522 3.159,6.274 11.157,17.971 12.573,23.652 -4.365,-0.373 -4.535,-0.145 -6.534,3.365 -6.893,-3.202 -26.425,-46.401 -27.795,-55.026 2.03,-2.584 2.717,-2.062 6.446,-3.029 z"
     id="path46" />
  <path
     fill="#79e0f5"
     d="m 1675.8153,443.32427 c 3.37,0.845 6.92,2.187 6.55,6.275 -1.29,14.14 2.05,45.537 -1.97,58.012 -2.84,0.741 -3.65,0.845 -6.58,0.984 l -1.09,-1.148 c -0.79,-9.467 -1.88,-58.238 3.09,-64.123 z"
     id="path47" />
  <path
     fill="#79e0f5"
     d="m 1592.9753,86.068265 c 8.8,3.904 35.99,23.839005 39.18,32.232005 -0.39,3.48 -2.82,5.599 -5.19,8.409 -14.94,-10.963 -21.79,-21.688 -39.99,-32.892005 1.89,-2.01 4.29,-5.447 6,-7.749 z"
     id="path48" />
  <path
     fill="#72ddf6"
     d="m 1075.9953,898.42527 c 24.49,-1.01 49.75,-0.03 74.29,-0.37 4.94,-0.07 15.47,0.14 18.98,3.81 -2.44,1.94 -3.79,1.75 -7.05,2.11 -17.24,-0.86 -86.58,1.63 -97.6,-1.92 l -0.29,-1.25 c 3.51,-2.34 7.41,-2.12 11.67,-2.38 z"
     id="path49" />
  <path
     fill="#72ddf6"
     d="m 63.044263,176.05027 c 3.03,1.436 4.734,1.796 6.167,4.736 -0.655,5.009 -10.998,39.064 -13.737,42.424 -1.935,-0.995 -5.355,-2.906 -5.964,-4.94 -2.853,-9.541 4.728,-37.816 13.534,-42.22 z"
     id="path50" />
  <path
     fill="#72ddf6"
     d="m 131.03026,89.419265 1.491,0.16 4.811,6.022 c -12.046,6.493005 -25.93,20.216005 -37.106,29.319005 -4.400997,-2.998 -4.593997,-2.428 -5.741997,-6.399 2.027,-9.173 12.074997,-13.07 17.816997,-18.737005 7.01,-6.919 12.244,-6.473 18.729,-10.365 z"
     id="path51" />
  <path
     fill="#79e0f5"
     d="m 1637.0453,130.64727 c 3.09,0.354 6.68,0.286 8.47,3.165 5.87,9.442 22.53,26.142 14.52,36.972 -10.01,-2.106 -7.69,-3.024 -12.99,-12.437 -4.63,-8.216 -9.04,-15.076 -14.98,-22.384 z"
     id="path52" />
  <path
     fill="#72ddf6"
     d="m 1176.1553,898.22527 c 24.53,-0.96 60.4,-0.31 85.44,0.81 1.06,0.05 0.98,0.6 1.81,1.95 l -0.71,2.87 c -11.24,0.09 -80.89,1.12 -86.7,-0.97 -0.89,-2.65 -0.73,-1.61 0.16,-4.66 z"
     id="path53" />
  <path
     fill="#72ddf6"
     d="m 82.732263,130.46127 c 5.465,1.019 8.041,3.399 8.813,8.756 -3.854,6.578 -13.878,26.21 -17.674,30.882 -1.264,-0.421 -2.492,-0.942 -3.672,-1.558 -13.606,-6.968 7.504,-29.376 12.533,-38.08 z"
     id="path54" />
  <path
     fill="#72ddf6"
     d="m 178.27526,64.073265 2.368,0.6 c 2.996,2.917 3.447,2.329 3.691,5.77 -3.661,5.385 -29.947,16.81 -36.433,18.927 l -1.651,-0.138 c -2.867,-3.053 -3.39,-2.604 -3.923,-6.277 3.899,-7.292 27.657,-16.069 35.948,-18.882 z"
     id="path55" />
  <path
     fill="#79e0f5"
     d="m 1614.1553,837.47527 c 2.64,0.94 2.78,1.26 4.83,3.3 2.87,10.43 -23.9,24.69 -32.18,29.42 -3.51,-1.73 -4.98,-2.94 -6.3,-6.32 0.2,-0.84 0.39,-1.67 0.59,-2.51 10.11,-6.05 24.71,-17.22 33.06,-23.89 z"
     id="path56" />
  <path
     fill="#79e0f5"
     d="m 46.045263,672.97527 c 2.964,2.567 3.975,4.53 6.978,4.34 0.967,-1.39 1.765,-2.435 2.493,-3.984 1.101,9.849 0.242,20.193 1.207,28.309 1.306,7.155 4.456,17.425 -5.175,19.659 -5.325,-2.467 -5.491,-5.386 -4.965,-11.219 -0.379,-11.624 -0.903,-25.618 -0.538,-37.105 z"
     id="path57" />
  <path
     fill="#72ddf6"
     d="m 56.723263,701.64027 c 1.306,7.155 4.456,17.425 -5.175,19.659 -5.325,-2.467 -5.491,-5.386 -4.965,-11.219 l 2.283,0.837 c 3.343,-1.533 6.903,-5.722 7.857,-9.277 z"
     id="path58" />
  <path
     fill="#85e4f5"
     d="m 49.275263,684.48727 c 2.626,3.65 0.444,17.186 0.935,23.253 l -1.249,-0.264 c -0.777,-6.552 -1.954,-16.767 0.314,-22.989 z"
     id="path59" />
  <path
     fill="#79e0f5"
     d="m 1664.9953,177.57927 c 7.81,4.401 14.13,31.566 13.8,40.338 -0.1,2.867 -3.12,3.909 -5.23,5.128 -1.13,-0.779 -3.66,-2.74 -3.9,-4.121 -1.86,-10.557 -9.66,-24.522 -10.84,-34.721 1.24,-3.373 3.26,-4.403 6.17,-6.624 z"
     id="path60" />
  <path
     fill="#79e0f5"
     d="m 45.628263,671.45027 c -0.453,-9.354 -2.677,-36.737 6.253,-40.617 l 2.111,0.839 c 5.554,6.528 1.732,30.006 1.424,40.597 l 0.1,1.062 c -0.728,1.549 -1.526,2.594 -2.493,3.984 -3.003,0.19 -4.014,-1.773 -6.978,-4.34 z"
     id="path61" />
  <path
     fill="#85e4f5"
     d="m 45.628263,671.45027 c 6.22,-3.025 2.169,-2.111 6.668,-6.426 1.01,2.62 1.925,4.702 3.12,7.245 l 0.1,1.062 c -0.728,1.549 -1.526,2.594 -2.493,3.984 -3.003,0.19 -4.014,-1.773 -6.978,-4.34 z"
     id="path62" />
  <path
     fill="#72ddf6"
     d="m 535.66626,898.17527 c 20.713,-0.11 61.132,-1.34 79.921,1 l 0.709,1.34 -1.18,3.11 c -7.771,0.64 -21.384,0.24 -29.521,0.24 -16.692,0.09 -33.384,0.03 -50.075,-0.18 l -0.865,-1.36 c 0.614,-1.62 0.689,-2.47 1.011,-4.15 z"
     id="path63" />
  <path
     fill="#79e0f5"
     d="m 46.388263,384.47127 c -0.035,-11.329 -0.23,-22.657 -0.586,-33.98 1.391,-0.635 1.451,-0.723 2.655,-1.682 l -0.134,-2.692 -2.332,1.141 -0.327,-1.141 2.026,-2.482 c 3.078,-0.549 1.799,-0.73 4.762,1.018 4.483,6.9 3.301,22.657 3.392,31.526 0.213,5.399 0.195,12.535 -5.323,15.363 -3.494,-1.162 -3.774,-3.477 -4.133,-7.071 z"
     id="path64" />
  <path
     fill="#72ddf6"
     d="m 55.844263,376.17927 c 0.213,5.399 0.195,12.535 -5.323,15.363 -3.494,-1.162 -3.774,-3.477 -4.133,-7.071 l 3.439,-1.378 c 1.904,-4.021 2.288,-4.433 6.017,-6.914 z"
     id="path65" />
  <path
     fill="#79e0f5"
     d="m 46.661263,441.03327 c 2.969,-0.035 3.91,-0.192 6.719,0.601 3.739,6.128 2.4,24.926 1.998,32.558 -0.384,7.299 -0.44,7.409 -5.237,11.567 -3.876,-0.285 -4.562,-6.043 -4.423,-9.008 0.485,-10.284 -1.622,-25.971 0.943,-35.718 z"
     id="path66" />
  <path
     fill="#72ddf6"
     d="m 384.43926,898.56527 c 16.937,-2.02 44.526,0.7 62.122,-0.05 2.951,-0.13 4.12,0.68 5.717,2.56 l -0.175,2.07 c -1.212,1.11 -12.546,0.54 -14.967,0.49 -11.052,0.18 -56.231,0.77 -64.402,-1.8 l -0.499,-1.35 c 2.507,-1.64 8.123,-1.36 12.204,-1.92 z"
     id="path67" />
  <path
     fill="#72ddf6"
     d="m 85.024263,815.33527 c 1.224,-1.421 1.904,-2.953 2.816,-4.621 l 0.462,3.002 c 1.104,-0.492 3.033,-1.814 4.01,-0.994 5.33,4.473 23.673997,23.833 21.244997,30.403 -2.304,-0.54 -5.322,-1.91 -7.963,-2.64 -6.214997,-1.72 -18.956997,-15.59 -21.212997,-21.03 0.119,-1.65 0.071,-2.58 0.643,-4.12 z"
     id="path68" />
  <path
     fill="#79e0f5"
     d="m 85.024263,815.33527 c 1.224,-1.421 1.904,-2.953 2.816,-4.621 l 0.462,3.002 -0.756,2.269 c 3.309,5.02 6.164,2.04 6.514,6.27 -4.889,0.59 -6.747,-3.26 -9.036,-6.92 z"
     id="path69" />
  <path
     fill="#72ddf6"
     d="m 1661.5053,764.91227 c 0.93,-2.615 2.04,-3.259 3.06,-7.086 1.92,-7.248 2.82,-28.575 6.93,-33.087 3.82,-0.916 4.36,-1.047 8.23,-0.506 3.82,3.491 -4.9,12.295 -2.61,18.701 1.46,4.093 0.06,7.869 -1.28,11.853 -8.82,5.715 -1.83,8.602 -14.33,10.125 z"
     id="path70" />
  <path
     fill="#72ddf6"
     d="m 274.14926,43.502265 c 3.64,0.062 4.428,-0.183 7.496,1.489 1.675,3.465 1.634,2.07 0.563,5.218 -5.235,4.071 -22.158,4.31 -30.811,5.823 -3.598,0.193 -4.816,0.237 -8.369,-0.258 -2.877,-2.209 -2.196,-1.097 -3.413,-4.26 l 0.873,-1.69 c 6.738,-5.031 24.829,-5.756 33.661,-6.322 z"
     id="path71" />
  <path
     fill="#72ddf6"
     d="m 1320.2053,898.18527 c 8.68,-0.28 64.56,-3 66.03,3.49 l -2.07,1.99 c -8.35,0.53 -63.69,2.56 -66.03,-3.29 z"
     id="path72" />
  <path
     fill="#72ddf6"
     d="m 163.50126,869.01527 c 10.454,4.57 21.451,8.35 32.029,12.69 3.211,1.31 6.839,3.75 9.561,4.57 l -1.356,1.74 c -3.462,1.9 -5.765,2.51 -9.464,3.67 -9.063,-4.23 -26.613,-7.47 -32.226,-16.59 -1.182,-1.92 0.505,-4.08 1.456,-6.08 z"
     id="path73" />
  <path
     fill="#72ddf6"
     d="m 1532.5153,882.28527 c 0.79,0.57 1.5,2.25 2.03,3.24 -0.43,9.86 -30.51,13.18 -38.63,13.41 -1.5,-1.42 -1.83,-2.22 -2.84,-3.97 l 0.74,-2.1 c 5.41,-5 30.46,-8.89 38.7,-10.58 z"
     id="path74" />
  <path
     fill="#79e0f5"
     d="m 124.92826,844.00527 c 2.571,0.35 4.694,3.68 6.871,5.41 5.629,4.47 20.342,11.44 22.38,18.56 -1.297,3.37 -0.352,2.31 -3.533,4 -11.977,-5.37 -23.392,-11.74 -32.914,-20.87 1.859,-2.1 5.097,-5.06 7.196,-7.1 z"
     id="path75" />
  <path
     fill="#72ddf6"
     d="m 223.50326,50.483265 c 2.842,1.192 3.274,1.462 5.808,3.246 0.553,3.061 0.812,1.782 -1.12,4.61 -7.062,3.733 -20.547,7.867 -28.394,9.296 -3.717,-1.023 -5.319,-1.801 -6.43,-5.491 2.585,-7.316 23.004,-10.968 30.136,-11.661 z"
     id="path76" />
  <path
     fill="#72ddf6"
     d="m 456.92826,41.477265 c 7.319,0.024 24.224,-1.013 30.399,1.074 -0.01,3.333 0.305,2.038 -1.666,4.953 -3.648,1.781 -10.412,1.362 -14.792,1.404 -8.288,0.114 -31.387,1.38 -37.369,-3.684 3.578,-4.124 18.415,-3.669 23.428,-3.747 z"
     id="path77" />
  <path
     fill="#72ddf6"
     d="m 1074.0153,40.398265 c 1.59,1.102 1.47,1.552 2.4,3.484 -1.49,7.377 -40.75,5.415 -47.91,4.04 -2.41,-1.418 -1.58,-0.444 -2.62,-2.983 l 1.13,-1.614 c 7.93,-3.626 35.36,-1.909 47,-2.927 z"
     id="path78" />
  <path
     fill="#72ddf6"
     d="m 211.49226,885.74527 c 8.27,0.91 30.72,4.09 36.866,8.68 0.927,2.86 0.669,1.89 -0.779,5.44 -7.717,1.74 -31.243,-1.57 -36.808,-7.18 -0.887,-2.97 -0.284,-3.8 0.721,-6.94 z"
     id="path79" />
  <path
     fill="#72ddf6"
     d="m 1672.2453,347.81527 c 3.04,0.115 6.99,-0.176 8.83,1.684 1.12,6.366 2.66,31.569 -0.25,36.746 -2.22,-0.464 -4.45,-0.836 -5.91,-2.695 -4.12,-5.255 -3.31,-29.349 -2.67,-35.735 z"
     id="path80" />
  <path
     fill="#72ddf6"
     d="m 1672.5453,302.44627 c -0.07,-8.244 -2.67,-34.658 2.87,-39.02 10.09,3.228 6.02,29.138 6.11,38.962 -3.43,0.198 -5.56,0.233 -8.98,0.058 z"
     id="path81" />
  <path
     fill="#85e4f5"
     d="m 1674.5053,678.29427 c 1.14,0.286 3.53,0.728 4.33,1.319 6.29,4.644 4.87,29.395 0.89,34.24 l -0.96,-0.61 -1.36,-1.363 -4.52,0.03 c -2.61,-2.577 -1.75,-29.758 1.62,-33.616 z"
     id="path82" />
  <path
     fill="#72ddf6"
     d="m 1568.3153,868.90527 c 3.22,-0.04 4.85,0.66 6.81,3.02 l -0.52,2.64 c -5.08,5.96 -20.07,10.43 -27.99,14.03 l -1.92,-0.04 c -1.74,-1.91 -3.96,-3.76 -4.23,-6.2 3.56,-4.91 21.22,-10.86 27.85,-13.45 z"
     id="path83" />
  <path
     fill="#72ddf6"
     d="m 268.57526,895.23527 c 7.913,0.92 39.1,0.38 41.568,6.32 -2.63,2.34 -1.737,1.61 -5.548,2.47 -8.487,0.08 -38.347,1.38 -43.258,-4.57 3.292,-3.85 1.958,-2.7 7.238,-4.22 z"
     id="path84" />
  <path
     fill="#72ddf6"
     d="m 1271.5553,41.405265 c 7.53,1.062 17.22,-1.68 25.21,0.739 1.47,3.08 1.26,1.722 1.06,5.157 l -1.89,1.679 c -4.25,1.301 -9.82,0.534 -14.35,0.215 -8.11,-0.031 -22.24,0.637 -28.78,-4.092 3.33,-3.605 13.73,-3.477 18.75,-3.698 z"
     id="path85" />
  <path
     fill="#72ddf6"
     d="m 1396.8153,41.092265 c 6.38,-0.232 28.34,-0.84 34.1,2.744 1.22,0.764 0.82,1.261 0.88,2.995 -2.24,2.782 -1.65,1.934 -5.63,3.272 -15.21,-0.527 -27.58,-0.129 -42.39,-4.199 3.87,-1.714 8.96,-3.368 13.04,-4.812 z"
     id="path86" />
  <path
     fill="#72ddf6"
     d="m 1441.1653,43.060265 c 9.14,0.107 28.24,-1.053 33.23,7.395 -0.49,3.97 -0.04,2.469 -2.99,6.155 -6.97,-1.88 -28.32,-3.397 -31.64,-8.011 0.03,-3.876 -0.53,-2.802 1.4,-5.539 z"
     id="path87" />
  <path
     fill="#72ddf6"
     d="m 976.37526,41.113265 c 8.37,-0.148 35.36004,-2.143 40.18004,3.098 l -0.46,2.079 -3.75,2.162 c -7.86,0.139 -34.44004,2.159 -39.09004,-2.713 l 0.23,-2.369 z"
     id="path88" />
  <path
     fill="#72ddf6"
     d="m 712.04726,41.118265 c 11.819,-0.331 24.797,0.249 36.719,0.128 3.546,-0.036 5.959,0.434 7.494,3.689 l -1,2.689 c -7.736,0.782 -38.395,2.722 -43.767,-1.29 -0.656,-3.131 -0.595,-1.936 0.554,-5.216 z"
     id="path89" />
  <path
     fill="#72ddf6"
     d="m 305.18926,42.287265 c 6.249,-0.667 20.518,-1.942 25.561,1.414 0.802,2.974 0.907,1.523 -0.632,4.463 -3.273,2.34 -7.952,2.129 -12.081,2.385 -6.424,0.463 -18.294,2.31 -23.367,-1.058 -0.72,-2.608 -0.737,-1.51 0.722,-4.404 2.777,-2.279 6.09,-2.274 9.797,-2.8 z"
     id="path90" />
  <path
     fill="#79e0f5"
     d="m 1560.8053,68.366265 c 8.4,3.661 19.52,7.189 23.55,15.344 -0.11,3.756 -0.59,3.183 -3.38,6.538 -7.55,-3.832 -20.05,-7.385 -23.36,-14.814 0.23,-4.375 0.16,-3.093 3.19,-7.068 z"
     id="path91" />
  <path
     fill="#72ddf6"
     d="m 1099.3253,40.201265 c 8.59,1.513 29.51,-0.22 35.31,2.763 l 0.1,2.217 c -2.14,3.377 -1,2.654 -4.23,3.733 -7.64,0.057 -32.32,1.817 -35.96,-3.954 1.56,-3.353 1.21,-2.375 4.78,-4.759 z"
     id="path92" />
  <path
     fill="#72ddf6"
     d="m 1005.3953,898.18527 c 7.38,-0.13 45,-2.53 47.17,3.01 l -1.42,2.3 -1.73,0.2 c -9.36,0.11 -41.73,1.3 -48.89,-1.53 l -0.64004,-1.56 c 1.86004,-1.95 2.71004,-1.84 5.51004,-2.42 z"
     id="path93" />
  <path
     fill="#79e0f5"
     d="m 1672.5453,302.44627 c 3.42,0.175 5.55,0.14 8.98,-0.058 0.38,8.64 2.3,26.098 -2.92,33.015 l -1.88,0.041 c -5.41,-6.631 -4.37,-24.222 -4.18,-32.998 z"
     id="path94" />
  <path
     fill="#79e0f5"
     d="m 48.029263,398.79527 6.323,0.864 c 3.38,4.527 0.926,27.295 -2.026,33.044 -9.987,-2.539 -8.071,-28.582 -4.297,-33.908 z"
     id="path95" />
  <path
     fill="#72ddf6"
     d="m 657.19526,41.313265 c 8.56,-0.046 27.777,-1.18 36.079,1.111 1.324,0.366 1.177,1.222 1.626,2.793 l -1.939,2.761 c -6.449,1.078 -33.995,2.919 -38.25,-1.577 0.163,-3.286 -0.096,-2.096 2.484,-5.088 z"
     id="path96" />
  <path
     fill="#72ddf6"
     d="m 1159.2953,41.226265 c 6.22,-0.111 30.23,-2.11 31.68,4.088 -2.29,3.091 -1.2,2.05 -5.49,3.693 -9.01,-0.004 -27.56,0.795 -34.75,-2.756 l -0.3,-1.662 c 2.89,-2.559 5.03,-2.59 8.86,-3.363 z"
     id="path97" />
  <path
     fill="#72ddf6"
     d="m 923.53526,41.200265 1.87,-0.028 c 8.74,-0.129 33.42,-1.709 38.8,3.507 -2.61,2.656 -1.99,1.856 -6.1,3 -6.94,0.37 -35.63,1.996 -39.02,-2.489 1.53,-3.127 0.81,-2.08 4.45,-3.99 z"
     id="path98" />
  <path
     fill="#79e0f5"
     d="m 1675.1053,397.83727 c 0.34,0.841 0.83,2.044 1.91,2.557 8.22,3.885 4.99,15.007 4.8,21.933 -0.12,4.532 -0.2,6.834 -2.49,9.613 -5.64,-2.679 -6.32,-4.621 -7.23,-10.747 -1.27,-8.592 -1.85,-16.08 3.01,-23.356 z"
     id="path99" />
  <path
     fill="#72ddf6"
     d="m 1207.4953,40.865265 c 7.45,1.773 28.25,-2.742 33.61,2.681 -0.1,3.066 -0.24,2.262 -2.61,5.256 -7.74,0.194 -31.08,2.264 -35.45,-3.266 1.11,-3.327 0.75,-2.272 4.45,-4.671 z"
     id="path100" />
  <path
     fill="#72ddf6"
     d="m 535.34526,41.449265 c 9.464,1.274 23.06,-1.902 31.932,2.441 l 0.209,1.806 c -3.175,2.781 -4.849,2.708 -8.93,3.266 -5.527,0.011 -31.099,1.413 -33.07,-4.319 3.289,-2.759 5.665,-2.675 9.859,-3.194 z"
     id="path101" />
  <path
     fill="#72ddf6"
     d="m 1430.9353,896.45527 c 5.1,-0.41 11,-1.61 14.81,2.11 l -0.55,1.84 c -5.85,4.77 -11.03,3.63 -18.6,3.49 -7.23,0.19 -13.47,0.97 -20.12,-2.09 l -0.26,-1.36 c 6.28,-4.5 16.92,-3.81 24.72,-3.99 z"
     id="path102" />
  <path
     fill="#79e0f5"
     d="m 1675.8353,754.78727 c -2.2,12.673 -6.01,22.046 -12.19,33.282 l -8.03,-5.552 5.89,-17.605 c 12.5,-1.523 5.51,-4.41 14.33,-10.125 z"
     id="path103" />
  <path
     fill="#72ddf6"
     d="m 851.82526,41.330265 11.21,-0.072 c 6.21,-0.043 19.85,-0.8 23.88,3.181 l -0.58,2.065 -3.02,1.625 c -6.82,0.496 -34.5,2.23 -37.92,-3.576 1.5,-2.421 3.07,-2.189 6.43,-3.223 z"
     id="path104" />
  <path
     fill="#72ddf6"
     d="m 678.41026,898.26527 c 10.714,-0.18 24.266,-0.62 35.117,-0.17 2.122,0.09 6.02,2.43 7.612,4.63 -2.034,1.48 -4.891,0.93 -7.918,0.98 -7.774,0.08 -38.905,1.44 -43.273,-2.13 l 0.388,-1.68 c 2.157,-1.67 5.227,-1.45 8.074,-1.63 z"
     id="path105" />
  <path
     fill="#79e0f5"
     d="m 46.942263,593.59327 c 11.924,-1.138 11.524,19.435 8.813,25.404 -2.528,0.653 -2.819,0.662 -5.447,0.798 -7.698,-4.252 -6.694,-19.899 -3.366,-26.202 z"
     id="path106" />
  <path
     fill="#72ddf6"
     d="m 1373.6553,49.024265 c -5.08,1.035 -24.17,3.173 -24.91,-4.023 5.73,-6.851 25.07,-4.421 32.89,-2.138 0.25,4.217 0.88,3.362 -1.15,5.792 -3.18,0.619 -3.56,0.58 -6.83,0.369 z"
     id="path107" />
  <path
     fill="#79e0f5"
     d="m 1381.6353,42.863265 c 0.25,4.217 0.88,3.362 -1.15,5.792 -3.18,0.619 -3.56,0.58 -6.83,0.369 -6.28,-1.919 -12.78,0.948 -17.29,-3.432 3.73,-3.24 18.52,-2.012 25.27,-2.729 z"
     id="path108" />
  <path
     fill="#72ddf6"
     d="m 794.43326,41.250265 c 6.689,0.171 31.602,-1.508 34.72,3.402 -1.259,2.879 -0.853,1.973 -4.065,3.936 -7.47,0.088 -31.055,1.781 -35.092,-3.735 1.565,-2.808 1.019,-1.913 4.437,-3.603 z"
     id="path109" />
  <path
     fill="#72ddf6"
     d="m 947.85526,898.22527 c 7.76,-0.28 33.52,-1.05 39.49,1.65 l 0.4,1.5 c -1.65,1.92 -3.09,1.88 -5.62,2.37 -9.36,0.09 -33.66,0.93 -41.39,-1.69 l -0.67,-1.49 c 2.48,-1.93 4.62,-1.88 7.79,-2.34 z"
     id="path110" />
  <path
     fill="#72ddf6"
     d="m 732.52526,898.36527 c 8.195,-0.44 44.337,-2.16 48.172,3.35 -2.029,1.58 -2.153,1.44 -4.604,1.89 -7.41,0.05 -41.305,2.13 -44.452,-2.6 z"
     id="path111" />
  <path
     fill="#79e0f5"
     d="m 1469.1453,892.24527 c 5.25,-0.24 16.12,-1.86 18.19,4.29 -2.51,3.64 -8.5,5.45 -12.68,6.22 -2.47,0.1 -4.94,0.13 -7.4,0.08 -3.96,-0.1 -5.82,-0.52 -8.58,-3.4 -0.46,-5.58 6.05,-6.41 10.47,-7.19 z"
     id="path112" />
  <path
     fill="#72ddf6"
     d="m 889.57526,898.17527 c 6.09,-0.25 33.7,-1.33 37.61,2.31 -1.21,2.71 -0.59,1.8 -4.11,3.32 -7.12,0.04 -36.14,1.2 -39.51,-3.23 1.91,-2.18 2.68,-1.72 6.01,-2.4 z"
     id="path113" />
  <path
     fill="#79e0f5"
     d="m 1641.2253,811.81627 c 1.56,0.135 2.9,0.476 4.43,0.793 4.81,6.346 -9.1,16.376 -13.78,19.986 -3.29,-0.62 -4.71,-1.24 -6.03,-4.1 1.15,-6.12 10.34,-12.47 15.38,-16.679 z"
     id="path114" />
  <path
     fill="#72ddf6"
     d="m 839.02526,897.99527 c 9.06,-0.12 32.44,-2.33 37.97,4 l -0.65,0.97 -3.75,0.48 c -6.35,-0.02 -33.53,1.11 -37.25,-2.13 l 0.33,-1.81 z"
     id="path115" />
  <path
     fill="#72ddf6"
     d="m 464.18026,898.05527 c 7.255,-0.11 26.742,-1.36 31.722,2.55 l -0.418,1.98 -3.266,1.48 c -7.963,-0.91 -25.838,0.93 -30.189,-1.58 l -0.218,-1.9 z"
     id="path116" />
  <path
     fill="#79e0f5"
     d="m 365.44526,41.774265 c 8.371,-0.673 14.614,-2.184 21.942,2.051 l 0.467,1.816 c -3.849,3.778 -9.437,3.87 -14.521,3.818 -2.584,-0.036 -5.166,-0.148 -7.743,-0.335 -1.687,-4.402 -1.521,-3.527 -0.145,-7.35 z"
     id="path117" />
  <path
     fill="#72ddf6"
     d="m 1278.0153,898.00527 c 6.48,-0.07 25.23,-1.68 28.96,2.66 l -0.98,2.1 -2.88,0.63 c -5.73,0.84 -24.31,1.61 -28.85,-1.82 l 0.3,-1.66 z"
     id="path118" />
  <path
     fill="#72ddf6"
     d="m 48.550263,227.60027 1.15,0.314 c 4.976,7.311 9.516,14.247 2.787,21.552 -1.97,0.269 -1.928,0.159 -3.919,0.022 -6.954,-6.261 -3.095,-14.379 -0.018,-21.888 z"
     id="path119" />
  <path
     fill="#79e0f5"
     d="m 1679.3053,233.41627 c 4.57,2.694 3.7,12.948 0.93,17.036 -1.38,2.022 -3.28,1.816 -5.55,2.282 -2.82,-3.448 -4.23,-10.881 -2.91,-15.183 1.14,-3.727 4.14,-3.405 7.53,-4.135 z"
     id="path120" />
  <path
     fill="#79e0f5"
     d="m 51.091263,725.52327 2.18,2.533 c 8.169,0.486 11.707,7.126 6.662,13.751 -11.891,4.609 -12.847,-7.602 -8.842,-16.284 z"
     id="path121" />
  <path
     fill="#79e0f5"
     d="m 584.38326,41.173265 c 7.872,-0.397 9.416,-0.835 16.639,2.004 0.214,1.866 -0.278,2.709 -0.816,4.612 l -3.68,1.302 c -4.507,0.067 -17.156,0.812 -18.865,-4.347 2.209,-2.56 3.306,-2.544 6.722,-3.571 z"
     id="path122" />
  <path
     fill="#72ddf6"
     d="m 365.59026,49.124265 c -6.206,-0.009 -19.388,0.915 -23.404,-4.049 l 1.271,-1.35 c 9.627,-3.351 11.843,-2.773 21.988,-1.951 -1.376,3.823 -1.542,2.948 0.145,7.35 z"
     id="path123" />
  <path
     fill="#72ddf6"
     d="m 1314.0653,40.983265 c 4.78,2.892 18.48,-1.669 23.74,3.124 -0.59,3.179 -0.13,2.032 -3.05,4.551 -6.26,0.155 -21.03,0.67 -24.24,-5.276 z"
     id="path124" />
  <path
     fill="#72ddf6"
     d="m 797.71826,898.44527 c 7.254,-0.39 20.372,-1.94 25.217,4.07 l -1.898,-0.85 -1.028,1.95 -2.547,0.04 c -5.755,0.06 -22.72,0.77 -26.613,-2.9 l 1.129,-0.02 0.699,-1.83 z"
     id="path125" />
  <path
     fill="#72ddf6"
     d="m 510.33926,41.370265 c 3.94,0.014 6.982,-0.654 8.902,3.249 -2.514,4.751 -7.174,4.229 -12.017,4.522 -0.928,-0.079 -1.854,-0.174 -2.778,-0.285 -3.825,-0.496 -4.384,-0.489 -6.262,-2.931 l 1.187,-1.945 c 3.222,-2.684 6.783,-2.402 10.968,-2.61 z"
     id="path126" />
  <path
     fill="#72ddf6"
     d="m 333.30626,898.45527 c 6.146,-0.98 19.438,-0.96 24.683,2.33 l -0.569,1.7 -3.319,0.93 c -5.264,0.58 -22.611,-0.27 -26.576,-2.87 3.849,-0.58 3.497,0.11 5.781,-2.09 z"
     id="path127" />
  <path
     fill="#79e0f5"
     d="m 1652.6453,792.71227 c 4.1,0.285 4.98,-0.402 7.52,1.932 0.47,3.315 -2.12,7.403 -3.7,10.699 -4.89,-0.356 -7.95,-0.589 -9.14,-5.699 0.83,-3.691 2.37,-4.442 5.32,-6.932 z"
     id="path128" />
  <path
     fill="#72ddf6"
     d="m 504.91826,898.08527 c 5.132,-0.15 19.237,-1.85 21.803,2.83 l -1.698,2.67 c -5.246,0.08 -18.572,1.51 -21.945,-2.08 z"
     id="path129" />
  <path
     fill="#79e0f5"
     d="m 1673.3853,525.39627 c 2.84,2.374 4.5,2.568 7.72,5.441 1.78,3.304 0.83,6.178 0.26,10.068 -3.26,0.809 -3.81,1.205 -6.82,0.169 -2.72,-3.778 -1.44,-10.7 -1.16,-15.678 z"
     id="path130" />
  <path
     fill="#72ddf6"
     d="m 610.94226,42.505265 c 6.726,-0.592 12.865,-2.316 17.766,1.511 l -1.364,3.788 c -7.718,0.922 -15.255,3.792 -16.402,-5.299 z"
     id="path131" />
  <path
     fill="#72ddf6"
     d="m 1674.0853,580.38727 c 3.48,1.934 5.92,2.875 8.15,6.142 0.53,4.073 0.54,2.508 -1.37,6.979 -4.21,1.247 -5.48,0.547 -7.87,-2.658 -0.93,-4.563 -0.22,-6.007 1.09,-10.463 z"
     id="path132" />
  <path
     fill="#79e0f5"
     d="m 407.92126,41.123265 c 1.677,-0.096 2.021,0.585 3.788,1.703 0.498,6.358 -4.002,6.372 -8.838,7.228 -3.757,-1.548 -2.768,-0.587 -5.118,-3.544 l 0.574,-1.951 c 3.465,-2.96 5.188,-2.871 9.594,-3.436 z"
     id="path133" />
  <path
     fill="#72ddf6"
     d="m 1549.9853,92.261265 c 6.72,1.432 10.43,6.436 8.33,13.328005 -9.46,0.326 -9.49,-6.324005 -8.33,-13.328005 z"
     id="path134" />
  <path
     fill="#79e0f5"
     d="m 645.58726,898.07527 c 4.174,0 7.929,-0.47 10.585,3.22 -1.934,2.34 -2.152,1.71 -5.894,2.62 -3.227,0.11 -7.444,-0.36 -9.885,-2.64 l 0.649,-1.48 z"
     id="path135" />
  <path
     fill="#72ddf6"
     d="m 900.16526,40.590265 c 3.61,0.348 6.38,0.204 9.12,2.419 0.34,3.332 0.5,2.017 -1.24,5.209 -3.65,-0.081 -6.48,0.229 -9.66,-1.442 -0.74,-3.268 -0.44,-2.296 1.78,-6.186 z"
     id="path136" />
  <path
     fill="#79e0f5"
     d="m 770.42226,40.905265 c 4.287,0.427 6.408,0.461 9.222,3.453 -0.912,2.977 -0.361,1.942 -3.763,3.971 -3.299,-0.478 -4.999,-0.451 -7.822,-2.242 -0.123,-3.019 -0.038,-2.101 2.363,-5.182 z"
     id="path137" />
  <path
     fill="#72ddf6"
     d="m 259.66526,92.811265 c 3.629,-0.129 4.458,-0.278 7.93,0.519 1.794,2.805 1.196,2.215 1.219,6.153 -3.161,0.977005 -3.303,1.079005 -6.513,0.653005 -2.666,-3.062005 -1.909,-2.728005 -2.636,-7.325005 z"
     id="path138" />
</svg>
